<svg width="32" height="36" viewBox="0 0 32 36" fill="none" xmlns="http://www.w3.org/2000/svg">
<path d="M32 16C32 6 24.837 0 16 0C7.164 0 0 6 0 16C0 21.574 0.00199986 26.388 6 28.64V33C6 34.657 7.343 36 9 36C10.657 36 12 34.657 12 33V29.845C12.324 29.872 12.659 29.895 13 29.915V33C13 34.657 14.343 36 16 36C17.657 36 19 34.657 19 33V29.915C19.342 29.894 19.676 29.872 20 29.845V33C20 34.657 21.344 36 23 36C24.657 36 26 34.657 26 33V28.64C31.998 26.388 32 21.574 32 16Z" fill="#8BA3A7"/>
<path d="M9 19C11.7614 19 14 16.7614 14 14C14 11.2386 11.7614 9 9 9C6.23858 9 4 11.2386 4 14C4 16.7614 6.23858 19 9 19Z" fill="#4C718D"/>
<path d="M23 19C25.7614 19 28 16.7614 28 14C28 11.2386 25.7614 9 23 9C20.2386 9 18 11.2386 18 14C18 16.7614 20.2386 19 23 19Z" fill="#4C718D"/>
<path d="M17.903 23.062C17.651 22.449 16.9 22 16 22C15.1 22 14.348 22.449 14.097 23.062C13.465 23.238 13 23.812 13 24.5C13 25.328 13.671 26 14.5 26C15.155 26 15.706 25.578 15.91 24.993C15.94 24.994 15.969 25 16 25C16.031 25 16.06 24.994 16.09 24.993C16.295 25.578 16.846 26 17.5 26C18.328 26 19 25.328 19 24.5C19 23.812 18.534 23.239 17.903 23.062Z" fill="#4C718D"/>
</svg>
