<svg width="36" height="36" viewBox="0 0 36 36" fill="none" xmlns="http://www.w3.org/2000/svg">
<path d="M36 18C36 27.941 27.941 36 18 36C8.059 36 0 27.941 0 18C0 8.059 8.059 0 18 0C27.941 0 36 8.059 36 18Z" fill="#DDA0AD"/>
<path d="M12 19.25C13.3807 19.25 14.5 18.0188 14.5 16.5C14.5 14.9812 13.3807 13.75 12 13.75C10.6193 13.75 9.5 14.9812 9.5 16.5C9.5 18.0188 10.6193 19.25 12 19.25Z" fill="#75101E"/>
<path d="M24 20C25.3807 20 26.5 18.433 26.5 16.5C26.5 14.567 25.3807 13 24 13C22.6193 13 21.5 14.567 21.5 16.5C21.5 18.433 22.6193 20 24 20Z" fill="#75101E"/>
<path d="M7.102 12.5589C7.351 12.7349 7.676 12.7949 7.987 12.6939C12.174 11.3389 15.014 13.2479 15.133 13.3299C15.586 13.6419 16.208 13.5309 16.523 13.0799C16.838 12.6289 16.731 12.0089 16.282 11.6919C16.132 11.5859 12.546 9.11693 7.372 10.7909C6.846 10.9609 6.558 11.5249 6.729 12.0499C6.797 12.2639 6.932 12.4379 7.102 12.5589ZM25 25.9999H11C10.448 25.9999 10 25.5529 10 24.9999C10 24.4469 10.448 23.9999 11 23.9999H25C25.553 23.9999 26 24.4469 26 24.9999C26 25.5529 25.553 25.9999 25 25.9999ZM30.001 10.4079C29.633 10.4079 29.27 10.2469 29.022 9.93693C27.627 8.18593 24.723 6.64993 23.708 6.64993C23.066 6.64993 21.783 7.56093 21.104 8.21793C20.608 8.69993 19.816 8.68493 19.337 8.18993C18.857 7.69493 18.868 6.90493 19.361 6.42393C19.752 6.04393 21.797 4.14893 23.708 4.14893C25.713 4.14893 29.246 6.20493 30.978 8.37793C31.409 8.91793 31.319 9.70393 30.78 10.1339C30.549 10.3189 30.273 10.4079 30.001 10.4079V10.4079Z" fill="#75101E"/>
</svg>
