<svg width="36" height="36" viewBox="0 0 36 36" fill="none" xmlns="http://www.w3.org/2000/svg">
<path d="M36 18C36 27.941 27.941 36 18 36C8.06 36 0 27.941 0 18C0 8.06 8.06 0 18 0C27.941 0 36 8.06 36 18Z" fill="#DDA0AD"/>
<path d="M29 27C31.7614 27 34 24.7614 34 22C34 19.2386 31.7614 17 29 17C26.2386 17 24 19.2386 24 22C24 24.7614 26.2386 27 29 27Z" fill="#C46471"/>
<path d="M7 27C9.76142 27 12 24.7614 12 22C12 19.2386 9.76142 17 7 17C4.23858 17 2 19.2386 2 22C2 24.7614 4.23858 27 7 27Z" fill="#C46471"/>
<path d="M29 13.9999C28.744 13.9999 28.488 13.9019 28.293 13.7069C25.716 11.1319 21.238 11.9709 21.194 11.9809C20.646 12.0899 20.127 11.7339 20.02 11.1939C19.913 10.6529 20.262 10.1279 20.803 10.0199C21.03 9.97393 26.366 8.95493 29.706 12.2929C30.097 12.6839 30.097 13.3159 29.706 13.7069C29.512 13.9019 29.256 13.9999 29 13.9999V13.9999ZM7.00001 13.9999C6.74401 13.9999 6.48801 13.9019 6.29301 13.7069C5.90201 13.3159 5.90201 12.6839 6.29301 12.2929C9.63301 8.95193 14.971 9.97493 15.196 10.0199C15.738 10.1279 16.089 10.6549 15.98 11.1969C15.872 11.7369 15.347 12.0889 14.805 11.9819C14.736 11.9669 10.276 11.1389 7.70701 13.7079C7.51201 13.9019 7.25601 13.9999 7.00001 13.9999V13.9999ZM26 18.9999C25.744 18.9999 25.488 18.9019 25.293 18.7069C23.989 17.4019 21.203 17.7329 20.241 17.9709C19.701 18.1029 19.164 17.7759 19.03 17.2409C18.897 16.7049 19.222 16.1639 19.758 16.0299C19.944 15.9839 24.333 14.9189 26.707 17.2929C27.098 17.6839 27.098 18.3159 26.707 18.7069C26.512 18.9019 26.256 18.9999 26 18.9999ZM10 18.9999C9.74401 18.9999 9.48801 18.9019 9.29301 18.7069C8.90201 18.3159 8.90201 17.6839 9.29301 17.2929C11.666 14.9199 16.057 15.9839 16.243 16.0299C16.778 16.1639 17.103 16.7049 16.97 17.2409C16.838 17.7769 16.297 18.1039 15.76 17.9709C14.796 17.7339 12.011 17.4039 10.708 18.7069C10.512 18.9019 10.256 18.9999 10 18.9999V18.9999Z" fill="#75101E"/>
<path d="M13 25C13 25 14 29 18 29C22 29 23 25 23 25C23 25 22 26 18 26C14 26 13 25 13 25Z" fill="#75101E"/>
<path d="M18 29.4999C13.66 29.4999 12.526 25.1649 12.515 25.1209C12.46 24.9029 12.558 24.6759 12.753 24.5639C12.944 24.4579 13.183 24.4849 13.344 24.6359C13.383 24.6699 14.41 25.4999 18 25.4999C21.644 25.4999 22.647 24.6449 22.657 24.6369C22.822 24.4909 23.066 24.4659 23.254 24.5769C23.442 24.6899 23.538 24.9079 23.485 25.1209C23.474 25.1649 22.34 29.4999 18 29.4999V29.4999ZM13.949 26.0079C14.526 27.0719 15.724 28.4999 18 28.4999C20.276 28.4999 21.475 27.0719 22.051 26.0079C21.231 26.2659 19.95 26.4999 18 26.4999C16.05 26.4999 14.769 26.2659 13.949 26.0079ZM13 24.9999H13.01H13Z" fill="#75101E"/>
</svg>
