<svg width="36" height="36" viewBox="0 0 36 36" fill="none" xmlns="http://www.w3.org/2000/svg">
<path d="M36 18C36 27.941 27.941 36 18 36C8.059 36 0 27.941 0 18C0 8.059 8.059 0 18 0C27.941 0 36 8.059 36 18Z" fill="#DDA0AD"/>
<path d="M18 21.5002C8.667 21.5002 7.515 29.8542 7.504 29.9382C7.483 30.1092 7.55 30.2782 7.683 30.3872C7.773 30.4612 7.886 30.5002 8 30.5002C8.053 30.5002 8.106 30.4912 8.158 30.4752C8.217 30.4552 14.126 28.5002 18 28.5002C23.595 28.5002 27.745 30.4332 27.786 30.4522C27.947 30.5292 28.144 30.5122 28.293 30.4052C28.44 30.2982 28.519 30.1192 28.496 29.9372C28.485 29.8542 27.333 21.5002 18 21.5002ZM29 10.0002C23.446 10.0002 21.198 5.6332 21.105 5.4472C20.858 4.9532 21.058 4.3522 21.552 4.1052C22.045 3.8592 22.644 4.0572 22.892 4.5482C22.967 4.6942 24.713 8.0002 29 8.0002C29.553 8.0002 30 8.4482 30 9.0002C30 9.5522 29.553 10.0002 29 10.0002ZM7 10.0002C6.448 10.0002 6 9.5522 6 9.0002C6 8.4482 6.448 8.0002 7 8.0002C12.083 8.0002 12.996 4.8802 13.033 4.7472C13.178 4.2192 13.725 3.8992 14.252 4.0382C14.782 4.1772 15.103 4.7112 14.97 5.2432C14.921 5.4372 13.704 10.0002 7 10.0002Z" fill="#75101E"/>
<path d="M18 23C22 23 24 25 24 25H12C12 25 14 23 18 23Z" fill="#CCD6DD"/>
<path d="M6.00101 19C5.69701 19 5.39701 18.862 5.20001 18.6C4.86801 18.159 4.95801 17.532 5.40001 17.201C5.54301 17.094 8.35101 15.018 12.256 14.268C9.78101 13.027 7.03401 13 6.99901 13C6.44701 12.998 6.00001 12.55 6.00101 11.998C6.00101 11.447 6.44801 11 7.00001 11C7.22101 11 12.452 11.038 15.707 14.293C15.993 14.579 16.079 15.009 15.924 15.383C15.769 15.756 15.404 16 15 16C10.387 16 6.63701 18.772 6.60001 18.8C6.42001 18.935 6.20901 19 6.00101 19V19ZM29.999 18.999C29.791 18.999 29.581 18.935 29.401 18.801C29.363 18.772 25.59 16 21 16C20.596 16 20.23 15.756 20.076 15.383C19.921 15.009 20.007 14.579 20.293 14.293C23.549 11.038 28.779 11 29 11C29.552 11 29.998 11.447 29.999 11.998C30 12.55 29.553 12.998 29.002 13C28.966 13 26.219 13.027 23.744 14.268C27.649 15.018 30.457 17.094 30.599 17.201C31.04 17.532 31.13 18.157 30.8 18.599C30.604 18.86 30.304 18.999 29.999 18.999Z" fill="#75101E"/>
</svg>
