<svg width="36" height="36" viewBox="0 0 36 36" fill="none" xmlns="http://www.w3.org/2000/svg">
<path d="M18.876 0C17.155 0 15.533 0.406 14.083 1.111C13.69 1.043 13.288 1 12.876 1C9.00998 1 5.87598 4.134 5.87598 8V20H5.89398C6.07698 26.467 11.365 31.656 17.876 31.656C24.387 31.656 29.675 26.467 29.858 20H29.876V11C29.876 4.925 24.951 0 18.876 0Z" fill="#292F33"/>
<path d="M13.876 5C13.876 5 13.873 10.308 8.87598 10.936V17C8.87598 21.971 12.905 26 17.876 26C22.847 26 26.876 21.971 26.876 17V11.981C15.765 11.605 13.876 5 13.876 5Z" fill="#F7DECE"/>
<path d="M17.876 23C18.4283 23 18.876 22.5523 18.876 22C18.876 21.4477 18.4283 21 17.876 21C17.3237 21 16.876 21.4477 16.876 22C16.876 22.5523 17.3237 23 17.876 23Z" fill="#DF1F32"/>
<path d="M5.87598 28H29.876V36H5.87598V28Z" fill="#75101E"/>
<path d="M18.876 19.5H16.876C16.6 19.5 16.376 19.276 16.376 19C16.376 18.724 16.6 18.5 16.876 18.5H18.876C19.152 18.5 19.376 18.724 19.376 19C19.376 19.276 19.152 19.5 18.876 19.5Z" fill="#C1694F"/>
<path d="M13.876 16C13.324 16 12.876 15.552 12.876 15V14C12.876 13.448 13.324 13 13.876 13C14.428 13 14.876 13.448 14.876 14V15C14.876 15.552 14.428 16 13.876 16ZM21.876 16C21.323 16 20.876 15.552 20.876 15V14C20.876 13.448 21.323 13 21.876 13C22.429 13 22.876 13.448 22.876 14V15C22.876 15.552 22.429 16 21.876 16Z" fill="#662113"/>
<path d="M3.07107 18.025C3.33407 17.541 3.84707 17.285 4.33907 17.331C4.37307 17.267 11.4231 20.273 11.4231 20.273L10.1551 21.82C9.45507 22.674 8.24807 22.843 7.45907 22.196L5.78207 20.821L3.52207 19.684C2.93607 19.387 2.73407 18.645 3.07107 18.025V18.025Z" fill="#EEC2AD"/>
<path d="M0.241038 14.9851C-0.108962 15.4121 -0.0739622 16.0201 0.321038 16.3441L5.23804 19.0821L8.80704 22.0081C9.20204 22.3311 9.80504 22.2471 10.155 21.8201L11.423 20.2731L9.99504 19.1031L6.77204 17.2101L1.58904 14.7971C1.58804 14.7971 0.591038 14.5581 0.241038 14.9851V14.9851Z" fill="#F7DECE"/>
<path d="M9.39595 18.4381C9.39595 18.4381 28.9929 27.0951 29.5039 27.3221C30.6939 27.8511 32.6579 29.0221 32.6579 31.0001L32.3069 35.7501C32.3069 35.8881 32.1949 36.0001 32.0569 36.0001H28.7339C28.6839 36.0001 28.6359 35.9851 28.5949 35.9571L9.15495 22.8981C9.08595 22.8521 9.04395 22.7741 9.04395 22.6911V18.6661C9.04495 18.4851 9.22995 18.3641 9.39595 18.4381V18.4381Z" fill="#75101E"/>
<path d="M18.1021 22.2659L17.3231 21.9419L10.8611 24.0509L12.3431 25.0819L18.1021 22.2659ZM23.3051 24.5819L24.3121 25.0269L19.1371 29.6209L15.3161 29.5959L23.3051 24.5819Z" fill="#75101E"/>
<path d="M32.6281 18.025C32.3651 17.541 31.8521 17.285 31.3601 17.331C31.3261 17.267 24.2761 20.273 24.2761 20.273L25.5441 21.82C26.2441 22.674 27.4511 22.843 28.2401 22.196L29.9171 20.821L32.1771 19.684C32.7631 19.387 32.9651 18.645 32.6281 18.025V18.025Z" fill="#EEC2AD"/>
<path d="M35.4581 14.985C35.8081 15.412 35.7731 16.02 35.3781 16.344L30.4611 19.082L26.8921 22.008C26.4971 22.331 25.8941 22.247 25.5441 21.82L24.2761 20.273L25.7041 19.103L28.9271 17.211L34.1101 14.798C34.1101 14.797 35.1081 14.558 35.4581 14.985V14.985Z" fill="#F7DECE"/>
<path d="M26.303 18.4381C26.303 18.4381 6.70602 27.0951 6.19502 27.3221C5.00502 27.8511 3.04102 29.0221 3.04102 31.0001L3.39202 35.7501C3.39202 35.8881 3.50402 36.0001 3.64202 36.0001H6.96502C7.01502 36.0001 7.06302 35.9851 7.10402 35.9571L26.543 22.8981C26.612 22.8521 26.654 22.7741 26.654 22.6911V18.6661C26.654 18.4851 26.468 18.3641 26.303 18.4381V18.4381Z" fill="#75101E"/>
</svg>
