<svg width="36" height="36" viewBox="0 0 36 36" fill="none" xmlns="http://www.w3.org/2000/svg">
<path d="M19 4.00098C17.279 4.00098 15.657 4.40698 14.207 5.11198C13.814 5.04398 13.412 5.00098 13 5.00098C9.134 5.00098 6 8.13498 6 12.001V24.001H6.018C6.201 30.468 11.489 35.657 18 35.657C24.511 35.657 29.799 30.468 29.982 24.001H30V15.001C30 8.92598 25.075 4.00098 19 4.00098Z" fill="#292F33"/>
<path d="M27 22.001H9C9 22.001 0 22.001 0 29.001C0 32.157 4 36.001 4 36.001H32C32 36.001 36 32.157 36 29.001C36 22.001 27 22.001 27 22.001Z" fill="#75101E"/>
<path d="M18 31.001C19.6569 31.001 21 29.6578 21 28.001C21 26.3441 19.6569 25.001 18 25.001C16.3431 25.001 15 26.3441 15 28.001C15 29.6578 16.3431 31.001 18 31.001Z" fill="#EEC2AD"/>
<path d="M14 11.001C14 11.001 13.997 16.309 9 16.937V21.001C9 25.972 13.029 30.001 18 30.001C22.971 30.001 27 25.972 27 21.001V17.982C15.89 17.606 14 11.001 14 11.001ZM17 34.001L12 33.001L10 32.001H7L6 36.001H17C18 36.001 18 35.001 18 35.001C18 34.448 17 34.001 17 34.001ZM26 32.001L24 33.001L19 34.001C19 34.001 18 34.448 18 35.001C18 35.001 18 36.001 19 36.001H30L29 32.001H26Z" fill="#F7DECE"/>
<path d="M22 22.001C21.447 22.001 21 21.554 21 21.001V20.001C21 19.448 21.447 19.001 22 19.001C22.553 19.001 23 19.448 23 20.001V21.001C23 21.554 22.553 22.001 22 22.001ZM14 22.001C13.448 22.001 13 21.554 13 21.001V20.001C13 19.448 13.448 19.001 14 19.001C14.552 19.001 15 19.448 15 20.001V21.001C15 21.554 14.552 22.001 14 22.001Z" fill="#662113"/>
<path d="M19 26.501H17C16.724 26.501 16.5 26.277 16.5 26.001C16.5 25.725 16.724 25.501 17 25.501H19C19.276 25.501 19.5 25.725 19.5 26.001C19.5 26.277 19.276 26.501 19 26.501Z" fill="#C1694F"/>
<path d="M5.49895 8.00075C5.28995 8.00075 5.07995 7.93575 4.89995 7.80075L0.89995 4.80075C0.45795 4.46975 0.36895 3.84275 0.69995 3.40075C1.03195 2.95975 1.65795 2.86975 2.09995 3.20075L6.09995 6.20075C6.54195 6.53175 6.63095 7.15875 6.29995 7.60075C6.10295 7.86275 5.80295 8.00075 5.49895 8.00075ZM8.50095 5.00075C8.17795 5.00075 7.86095 4.84475 7.66795 4.55575L5.66795 1.55575C5.36195 1.09575 5.48595 0.474753 5.94495 0.168753C6.40395 -0.138247 7.02495 -0.013247 7.33195 0.445753L9.33195 3.44575C9.63795 3.90475 9.51395 4.52675 9.05495 4.83275C8.88395 4.94675 8.69095 5.00075 8.50095 5.00075ZM30.5009 8.00075C30.1959 8.00075 29.897 7.86275 29.7 7.60075C29.368 7.15875 29.458 6.53175 29.9 6.20075L33.9 3.20075C34.34 2.86775 34.968 2.95875 35.299 3.40075C35.631 3.84275 35.5409 4.46975 35.0989 4.80075L31.099 7.80075C30.92 7.93575 30.7099 8.00075 30.5009 8.00075V8.00075ZM27.499 5.00075C27.309 5.00075 27.116 4.94675 26.945 4.83275C26.485 4.52675 26.3609 3.90575 26.6679 3.44575L28.6679 0.445753C28.9739 -0.013247 29.593 -0.139247 30.055 0.168753C30.515 0.474753 30.639 1.09575 30.332 1.55575L28.332 4.55575C28.14 4.84475 27.822 5.00075 27.499 5.00075V5.00075Z" fill="#DDA0AD"/>
</svg>
