<svg width="36" height="36" viewBox="0 0 36 36" fill="none" xmlns="http://www.w3.org/2000/svg">
<path d="M14 0C12.279 0 10.657 0.406 9.207 1.111C8.814 1.043 8.412 1 8 1C4.134 1 1 4.134 1 8V20H1.018C1.201 26.467 6.489 31.656 13 31.656C19.511 31.656 24.799 26.467 24.982 20H25V11C25 4.925 20.075 0 14 0Z" fill="#292F33"/>
<path d="M22 27H4C1.791 27 0 28.791 0 31V36H26V31C26 28.791 24.209 27 22 27Z" fill="#75101E"/>
<path d="M21 32H22V36H21V32ZM4 32H5V36H4V32Z" fill="#7450A8"/>
<path d="M10 22V28C10 29.657 11.343 31 13 31C14.657 31 16 29.657 16 28V22H10Z" fill="#F7DECE"/>
<path d="M9 5C9 5 8.997 10.308 4 10.936V17C4 21.971 8.029 26 13 26C17.971 26 22 21.971 22 17V11.981C10.89 11.605 9 5 9 5Z" fill="#F7DECE"/>
<path d="M17 22H9C9 22 10 24 13 24C16 24 17 22 17 22Z" fill="#75101E"/>
<path d="M29 36H22L23 19H29V36Z" fill="#75101E"/>
<path d="M31.541 15.4428C31.397 14.7498 30.719 14.3038 30.024 14.4458L27.35 14.9998H25C23.896 14.9998 23 15.8958 23 16.9998V18.9998H28C29.079 18.9998 29.953 18.1428 29.992 17.0728L30.347 16.9998H31C31 16.9258 30.972 16.8558 30.955 16.7838C31.399 16.5078 31.653 15.9848 31.541 15.4428V15.4428Z" fill="#EEC2AD"/>
<path d="M36 16C36 15.448 35.553 15 35 15L29 16H24C23.447 16 23 16.448 23 17V19H29L35 17C35 17 36 16.553 36 16Z" fill="#F7DECE"/>
<path d="M14 19.5H12C11.724 19.5 11.5 19.276 11.5 19C11.5 18.724 11.724 18.5 12 18.5H14C14.276 18.5 14.5 18.724 14.5 19C14.5 19.276 14.276 19.5 14 19.5Z" fill="#C1694F"/>
<path d="M9 16C8.448 16 8 15.552 8 15V14C8 13.448 8.448 13 9 13C9.552 13 10 13.448 10 14V15C10 15.552 9.552 16 9 16ZM17 16C16.448 16 16 15.552 16 15V14C16 13.448 16.448 13 17 13C17.552 13 18 13.448 18 14V15C18 15.552 17.552 16 17 16Z" fill="#662113"/>
</svg>
