<svg width="34" height="34" viewBox="0 0 34 34" fill="none" xmlns="http://www.w3.org/2000/svg">
<path d="M33.955 16.8813C34.369 21.5303 31.873 25.6123 29.124 29.0873C26.82 31.6413 23.522 32.7183 20.223 33.3723C17.025 34.4613 13.457 34.1113 10.507 32.4773C9.47301 32.0473 8.25901 31.9183 7.34001 31.3013C4.46101 29.4553 2.81601 26.3743 1.56101 23.2723C-0.0659939 20.3563 -0.178994 16.7893 0.147006 13.5303C0.366006 12.4233 1.11401 11.4983 1.53501 10.4793C2.26401 8.3523 3.45101 6.5163 5.10401 5.0043C5.89001 4.2173 6.48101 3.1813 7.40701 2.5603C8.32601 1.9433 9.51001 1.8023 10.544 1.3723C11.56 0.950297 12.512 0.292297 13.616 0.073297C14.688 -0.139703 15.817 0.179297 16.951 0.179297C19.186 0.123297 21.433 0.327297 23.526 0.968297C24.56 1.3983 25.307 2.3483 26.226 2.9653C27.152 3.5873 28.225 4.0053 29.01 4.7923C30.613 6.3583 31.994 8.2033 32.95 10.2383C33.6 12.3473 33.907 14.6273 33.955 16.8813V16.8813Z" fill="#C46471"/>
<path d="M21.627 15.9582C22.804 15.5732 24.071 16.2192 24.454 17.3982C24.838 18.5772 24.194 19.8452 23.013 20.2292C21.832 20.6132 19.142 20.4302 18.758 19.2512C18.375 18.0702 20.445 16.3402 21.627 15.9582V15.9582ZM30.197 15.2862C29.817 15.7382 29.142 15.7982 28.69 15.4172C28.238 15.0362 28.179 14.3622 28.559 13.9092C28.94 13.4582 30.073 12.8522 30.525 13.2322C30.978 13.6132 30.578 14.8332 30.197 15.2862ZM8.19703 8.28624C7.81703 8.73824 7.14203 8.79824 6.69003 8.41724C6.23803 8.03624 6.17903 7.36324 6.55903 6.90924C6.94003 6.45824 8.07303 5.85224 8.52503 6.23224C8.97803 6.61324 8.57803 7.83324 8.19703 8.28624ZM20.29 6.39224C19.542 5.91424 19.321 4.92024 19.8 4.17224C20.279 3.42324 21.273 3.20424 22.022 3.68224C22.771 4.16124 23.894 5.73224 23.416 6.48024C22.936 7.23024 21.039 6.87224 20.29 6.39224V6.39224ZM12.364 12.6092C11.849 11.5432 12.3 10.2582 13.369 9.74524C14.438 9.23224 15.72 9.68424 16.233 10.7532C16.746 11.8232 16.915 14.3962 15.846 14.9072C14.775 15.4212 12.875 13.6802 12.364 12.6092V12.6092ZM13.388 26.7082C13.99 25.8342 15.188 25.6122 16.06 26.2162C16.934 26.8212 17.154 28.0172 16.55 28.8912C15.946 29.7652 14.022 31.0382 13.15 30.4352C12.275 29.8312 12.784 27.5812 13.388 26.7082V26.7082ZM23.401 26.3022C22.714 25.8662 22.512 24.9542 22.952 24.2682C23.39 23.5832 24.301 23.3822 24.987 23.8212C25.673 24.2592 26.702 25.6992 26.263 26.3832C25.825 27.0712 24.087 26.7422 23.401 26.3022V26.3022ZM4.52503 17.4312C5.28703 16.5782 6.59603 16.5052 7.44803 17.2682C8.30003 18.0322 8.37203 19.3392 7.60903 20.1902C6.84603 21.0442 4.61703 22.1452 3.76603 21.3812C2.91203 20.6182 3.76103 18.2822 4.52503 17.4312Z" fill="#75101E"/>
</svg>
