<svg width="34" height="25" viewBox="0 0 34 25" fill="none" xmlns="http://www.w3.org/2000/svg">
<path d="M34 11C34 3 28 0 22 0C20.262 0 18.528 0.371 17 1.097C15.472 0.371 13.738 0 12 0C6 0 0 3 0 11C0 14 1.314 16.662 3 19C3.434 19.602 3.903 20.146 4.4 20.647C4.043 21.25 3.784 21.738 3.621 22C3 23 4 24 5 24C5.69 24 6.205 23.383 6.745 22.518C9.552 24.273 13.023 25 17 25C20.977 25 24.448 24.273 27.255 22.518C27.795 23.383 28.31 24 29 24C30 24 31 23 30.379 22C30.216 21.738 29.957 21.25 29.6 20.647C30.097 20.146 30.567 19.601 31 19C32.686 16.662 34 14 34 11ZM17 12.207C15.578 10.736 16 9 16 9C16 8.292 16.381 7.586 17 6.966C17.619 7.586 18 8.292 18 9C18 9 18.422 10.736 17 12.207ZM7.215 14.94C5.59 12.687 5.204 10.388 6 8C7.053 4.842 10.85 5 12 5C12.288 5 12.576 5.024 12.861 5.059C12.314 6.185 12 7.498 12 9C12 10.476 12.578 12.273 13.951 13.799C13.653 13.874 13.341 13.943 13 14C11.093 14.318 9.529 15.122 8.255 16.107C7.88 15.752 7.525 15.371 7.215 14.94V14.94ZM17 19C14.704 19 12.524 18.606 10.676 17.734C11.333 17.362 12.091 17.092 13 17C14.565 16.843 15.885 16.476 17 15.976C18.115 16.476 19.435 16.843 21 17C21.909 17.092 22.667 17.362 23.324 17.734C21.476 18.606 19.296 19 17 19ZM26.785 14.94C26.474 15.371 26.12 15.752 25.745 16.107C24.471 15.122 22.906 14.318 21 14C20.659 13.943 20.347 13.874 20.05 13.799C21.422 12.273 22 10.476 22 9C22 7.498 21.687 6.185 21.139 5.059C21.424 5.024 21.712 5 22 5C23.15 5 26.947 4.842 28 8C28.796 10.388 28.41 12.687 26.785 14.94Z" fill="#C46471"/>
<path d="M10.751 17.7639C9.95702 18.2119 8.97102 18.9359 8.37502 19.9999C7.68702 21.2289 7.15702 22.0329 6.79102 22.5439C7.12602 22.7509 7.47002 22.9459 7.82302 23.1249C8.17602 22.4329 8.70102 21.4719 9.37502 20.4369C10.143 19.2579 11.277 18.5249 11.864 18.1989C11.483 18.0679 11.108 17.9299 10.751 17.7639V17.7639ZM22.443 17.3299L22.438 17.3319C22.752 17.4459 23.049 17.5789 23.324 17.7339C23.134 17.8239 22.925 17.8869 22.727 17.9669C23.291 18.3819 24.075 19.0589 24.687 19.9989C25.427 21.1349 26.064 22.2169 26.484 22.9509C26.744 22.8109 27.005 22.6729 27.255 22.5159C27.443 22.8159 27.627 23.0829 27.817 23.3079C27.817 23.3079 27.255 22.5159 25.813 19.9979C24.371 17.4799 22.443 17.3299 22.443 17.3299V17.3299ZM20.05 13.7989C20.1 13.7439 20.14 13.6869 20.188 13.6309C19.62 14.0749 18.848 14.6859 18.165 15.2529C17.807 15.5499 17.402 15.7839 17.004 15.9769C17.405 16.1569 17.843 16.3119 18.3 16.4539C18.824 16.1609 19.457 15.7559 20.001 15.2499C20.561 14.7289 20.893 14.3299 21.082 14.0199C21.053 14.0149 21.028 14.0049 21 13.9999C20.659 13.9429 20.347 13.8739 20.05 13.7989ZM17.583 7.71093C18.315 7.09893 19.71 6.18693 21.534 6.04193C21.425 5.71793 21.301 5.40493 21.158 5.10693C20.575 5.19793 19.773 5.35593 19 5.62493C18.123 5.92993 17.42 6.53893 17.002 6.96893C17.237 7.20493 17.425 7.45493 17.583 7.71093V7.71093Z" fill="#DDA0AD"/>
<path d="M6 18C6.55228 18 7 17.5523 7 17C7 16.4477 6.55228 16 6 16C5.44772 16 5 16.4477 5 17C5 17.5523 5.44772 18 6 18Z" fill="#FFE8B6"/>
<path d="M2 10C2.55228 10 3 9.55228 3 9C3 8.44772 2.55228 8 2 8C1.44772 8 1 8.44772 1 9C1 9.55228 1.44772 10 2 10Z" fill="#FFE8B6"/>
<path d="M5 7C5.55228 7 6 6.55228 6 6C6 5.44772 5.55228 5 5 5C4.44772 5 4 5.44772 4 6C4 6.55228 4.44772 7 5 7Z" fill="#FFE8B6"/>
<path d="M11 3C11.5523 3 12 2.55228 12 2C12 1.44772 11.5523 1 11 1C10.4477 1 10 1.44772 10 2C10 2.55228 10.4477 3 11 3Z" fill="#FFE8B6"/>
<path d="M13 23C13.5523 23 14 22.5523 14 22C14 21.4477 13.5523 21 13 21C12.4477 21 12 21.4477 12 22C12 22.5523 12.4477 23 13 23Z" fill="#FFE8B6"/>
<path d="M20 22C20.5523 22 21 21.5523 21 21C21 20.4477 20.5523 20 20 20C19.4477 20 19 20.4477 19 21C19 21.5523 19.4477 22 20 22Z" fill="#FFE8B6"/>
<path d="M24 23C24.5523 23 25 22.5523 25 22C25 21.4477 24.5523 21 24 21C23.4477 21 23 21.4477 23 22C23 22.5523 23.4477 23 24 23Z" fill="#FFE8B6"/>
<path d="M30 13C30.5523 13 31 12.5523 31 12C31 11.4477 30.5523 11 30 11C29.4477 11 29 11.4477 29 12C29 12.5523 29.4477 13 30 13Z" fill="#FFE8B6"/>
<path d="M30 5C30.5523 5 31 4.55228 31 4C31 3.44772 30.5523 3 30 3C29.4477 3 29 3.44772 29 4C29 4.55228 29.4477 5 30 5Z" fill="#FFE8B6"/>
<path d="M21 4C21.5523 4 22 3.55228 22 3C22 2.44772 21.5523 2 21 2C20.4477 2 20 2.44772 20 3C20 3.55228 20.4477 4 21 4Z" fill="#FFE8B6"/>
<path d="M18 5C18.5523 5 19 4.55228 19 4C19 3.44772 18.5523 3 18 3C17.4477 3 17 3.44772 17 4C17 4.55228 17.4477 5 18 5Z" fill="#FFE8B6"/>
</svg>
