<svg width="17" height="33" viewBox="0 0 17 33" fill="none" xmlns="http://www.w3.org/2000/svg">
<path d="M5.89668 32.0519L5.84801 32.0668C5.86486 32.0032 5.88732 31.889 5.88732 31.7083C5.88732 31.4247 5.7413 30.8949 5.70105 30.8191C5.6608 30.7433 5.61681 30.689 5.51946 30.7161C5.44552 30.7367 4.87828 31.0213 4.51604 31.0353C3.84304 31.0606 3.51824 30.4569 3.51824 30.4569C3.51824 30.4569 3.14476 30.6703 2.84804 30.8434C2.55039 31.0166 2.20499 31.2759 1.9504 31.4303C1.73324 31.5623 1.48519 31.625 1.22872 31.6578C0.972248 31.6905 0.763514 31.6793 0.701736 31.6849C0.639959 31.6905 0.120463 31.6278 0.101743 32.1417L0.104551 32.2606L0.0540059 32.2363C0.0540059 32.2363 0.00907655 32.3954 0.00533244 32.4253C0.00158834 32.4562 -0.0171326 32.474 0.0483892 32.5152C0.113911 32.5564 0.402208 32.6799 0.76913 32.7717C1.13605 32.8634 1.73137 32.9991 2.19095 32.9991C2.65054 32.9991 3.0418 32.9074 3.26832 32.8531C3.49577 32.7988 3.98251 32.6949 4.02931 32.7164C4.07611 32.738 4.13789 32.8952 4.19124 32.9439C4.24553 32.9926 5.69824 32.8681 5.80214 32.8465C5.90698 32.825 5.9388 32.7352 5.9388 32.6949V32.0874C5.94068 32.0621 5.91915 32.0453 5.89668 32.0519V32.0519ZM16.1434 28.5399L15.6716 28.1383C15.6538 28.1234 15.6267 28.128 15.6164 28.1496L15.5958 28.1973C15.5574 28.1421 15.4835 28.0494 15.344 27.9305C15.124 27.7433 14.6167 27.5056 14.5315 27.4878C14.4463 27.4691 14.3752 27.4672 14.3322 27.5599C14.2994 27.631 14.1459 28.2581 13.9166 28.5483C13.4916 29.0865 12.8083 28.9396 12.8083 28.9396L12.6651 29.7146C12.6024 30.0591 12.5752 30.499 12.5266 30.7985C12.4854 31.0541 12.3702 31.2881 12.2252 31.508C12.081 31.7289 11.935 31.8824 11.8975 31.9348C11.861 31.9863 11.4698 32.3476 11.8554 32.7024L11.95 32.7782L11.8985 32.8016C11.8985 32.8016 11.9921 32.9411 12.0127 32.9645C12.0333 32.9879 12.0361 33.0141 12.11 32.9907C12.184 32.9673 12.4713 32.825 12.7849 32.6013C13.0994 32.3767 13.5974 32.0051 13.9006 31.6484C14.2049 31.2918 14.3911 30.9277 14.4997 30.7161C14.6083 30.5046 14.8488 30.0581 14.8966 30.0357C14.9443 30.0132 15.1062 30.0693 15.1802 30.06C15.2532 30.0506 16.1172 28.8413 16.1696 28.7467C16.222 28.6522 16.1743 28.5661 16.1434 28.5399V28.5399Z" fill="#292F33"/>
<path d="M7.10315 10.7742C7.97085 11.6728 9.96926 13.4793 10.0133 13.6956C10.2482 14.8403 10.588 16.1348 10.5 16.9286C10.4363 17.5042 10.8519 18.1436 11.0157 18.4103C11.2198 18.7417 11.7468 19.2509 12.0837 19.2153C12.2934 19.1938 12.6145 18.8128 12.4432 18.62C12.109 18.2456 12.1642 17.6755 11.9546 17.1607C11.5343 16.1264 11.9125 14.1711 11.3359 12.8896C11.0962 12.3589 10.6498 11.3049 8.69252 9.49561C8.21421 9.92805 7.10315 10.7742 7.10315 10.7742V10.7742Z" fill="#EEC2AD"/>
<path d="M6.82711 0.610166C5.33602 0.0232776 3.01093 0.780523 2.74135 2.52247C2.47271 4.25224 2.96506 6.96579 4.48517 6.80198C6.07829 6.62975 7.71259 6.28342 8.35845 4.64257C9.00431 3.00171 8.3182 1.19705 6.82711 0.610166V0.610166Z" fill="#F7DECE"/>
<path d="M7.93547 5.06466C10.1052 2.51586 4.87841 2.76391 4.87841 2.76391C3.88903 2.79948 4.57045 4.44782 4.10431 5.34828C3.78513 5.97074 5.12926 6.30115 5.12926 6.30115C5.12926 6.30115 5.7461 6.29179 5.77886 7.04061V7.04717C5.78635 7.23811 5.7667 7.4637 5.67777 7.76697C5.23503 9.26555 7.24749 10.1838 7.68929 8.6824C7.86433 8.08803 7.796 7.56572 7.70801 7.08367L7.69959 7.04061C7.5648 6.32362 7.39819 5.69554 7.93547 5.06466V5.06466Z" fill="#F7DECE"/>
<path d="M8.53071 1.21089C7.53759 0.0483458 6.17192 -0.433708 3.83279 0.470494C1.78945 1.2605 2.44654 2.88451 2.92298 2.60651C4.23528 1.84177 5.10579 2.49512 5.77411 3.56219C5.96881 3.03801 6.82433 2.71602 6.9975 3.48263C7.19219 4.34471 6.39189 4.72005 6.4986 4.955C6.53417 5.03362 6.45835 4.88386 6.4986 4.955C7.0106 5.85358 7.84367 6.13626 7.84367 6.13626C7.84367 6.13626 8.15911 6.25982 8.69732 5.1993C9.23554 4.13878 9.51728 2.36501 8.53071 1.21089V1.21089Z" fill="#292F33"/>
<path d="M7.99347 2.43296C10.0181 2.87008 9.18691 6.02636 9.38535 7.18797C9.62965 8.61822 11.0337 8.66877 11.0337 8.66877C11.0337 8.66877 10.8025 7.67284 10.9251 6.63104C11.0964 5.18675 12.038 4.02046 11.044 2.60987C9.77567 0.808954 6.73452 2.16151 7.99347 2.43296V2.43296Z" fill="#292F33"/>
<path d="M4.07254 31.3296C2.88753 31.4317 2.33809 31.1115 2.46164 30.9402C2.61609 30.7268 2.58145 30.5686 2.58332 30.4385C2.60953 28.1537 2.14246 24.8308 2.14246 24.8308C2.14246 24.5051 2.14526 24.0698 2.4345 23.3687C3.16273 21.6062 6.13274 16.1707 6.13274 16.1707C6.64568 15.274 7.79044 14.9604 8.68715 15.4743C9.5848 15.9872 9.73737 16.7894 9.38356 18.0287C8.7143 20.3762 6.60824 23.2723 5.73025 25.0274C5.93992 27.0127 5.56738 28.6339 5.76301 30.5097C5.79109 30.7792 5.25755 31.2276 4.07254 31.3296V31.3296Z" fill="#DDA0AD"/>
<path d="M14.1205 29.2028C13.7798 29.7205 13.2126 30.0846 12.6248 29.9872C11.437 28.1863 7.98676 25.0066 7.98676 25.0066C7.76118 24.7726 7.46071 24.4572 7.18178 23.7514C6.48163 21.9776 4.84358 16.0039 4.84358 16.0039C4.58898 15.0024 5.19553 13.9821 6.19708 13.7294C7.19862 13.4748 7.86601 13.9465 8.47162 15.0829C9.62012 17.2367 10.1162 20.7833 10.7031 22.6553C12.4535 24.123 12.9337 26.0278 14.7046 27.4768C14.6438 28.279 14.4613 28.6852 14.1205 29.2028Z" fill="#DDA0AD"/>
<path d="M10.5667 18.035C10.5667 18.035 10.5667 18.971 8.69468 18.971H4.11002C3.72157 17.0989 4.62858 15.3972 4.01455 12.8868C3.2208 9.64816 6.26663 6.45256 7.5883 6.87752C9.3162 7.43352 10.109 9.34957 10.3327 12.3608C10.5564 15.372 10.5667 18.035 10.5667 18.035Z" fill="#75101E"/>
<path d="M5.65223 10.3521C5.49591 11.6616 5.35083 14.5015 5.20387 14.6812C4.42416 15.6369 3.59203 16.7779 2.88346 17.2356C2.36958 17.5669 2.12435 18.3345 2.01577 18.6462C1.88098 19.0337 1.81639 19.805 2.06912 20.0568C2.22731 20.214 2.75242 20.2224 2.79548 19.9538C2.87972 19.4306 3.38143 19.0955 3.66317 18.5807C4.22853 17.5473 6.08093 16.5523 6.74457 15.2259C7.01976 14.6756 7.58325 13.6076 7.75829 10.7995C7.08435 10.6965 5.65223 10.3521 5.65223 10.3521V10.3521Z" fill="#F7DECE"/>
</svg>
