<svg width="35" height="35" viewBox="0 0 35 35" fill="none" xmlns="http://www.w3.org/2000/svg">
<path d="M35 17.5C35 27.1649 27.1649 35 17.5 35C7.83514 35 0 27.1649 0 17.5C0 7.83514 7.83514 0 17.5 0C27.1649 0 35 7.83514 35 17.5Z" fill="#DDA0AD"/>
<path d="M23.6512 22.9658C23.5025 22.8374 23.2934 22.8112 23.1155 22.8987L19.2266 24.8431C17.4076 25.7522 12.6865 25.7638 12.6389 25.7638C12.3705 25.7638 12.1528 25.9816 12.1528 26.2499C12.1528 26.4298 12.251 26.5873 12.3958 26.6709V26.6719H12.3968V26.6729C12.4658 26.7118 12.5455 26.7341 12.6301 26.7361H19.4435C22.0276 26.7361 23.4189 24.6118 23.7941 23.4869C23.8564 23.3002 23.8 23.0951 23.6512 22.9658V22.9658ZM30.1398 15.5555C29.8433 15.5555 29.5526 15.4213 29.3611 15.1666C26.7935 11.7434 23.4684 11.6676 23.3275 11.6666C22.7928 11.6608 22.3611 11.2233 22.364 10.6895C22.3669 10.1538 22.7986 9.72217 23.3333 9.72217C23.5122 9.72217 27.7443 9.77078 30.9166 13.9999C31.2394 14.4297 31.1519 15.0393 30.7222 15.3611C30.5472 15.4923 30.343 15.5555 30.1398 15.5555V15.5555ZM4.86012 15.5555C4.6579 15.5555 4.45276 15.4923 4.27776 15.3611C3.84803 15.0393 3.76151 14.4297 4.08331 13.9999C7.2547 9.77078 11.4878 9.72217 11.6666 9.72217C12.2033 9.72217 12.6389 10.1577 12.6389 10.6944C12.6389 11.2301 12.2062 11.6647 11.6705 11.6666C11.5189 11.6686 8.20067 11.7502 5.6379 15.1666C5.44831 15.4213 5.15567 15.5555 4.86012 15.5555ZM15.4554 16.9127C15.4778 16.8622 15.5128 16.8194 15.5264 16.763C15.6566 16.2419 15.3397 15.714 14.8196 15.5837C14.6446 15.5399 10.4766 14.5337 7.23915 16.6901C6.7929 16.9876 6.67234 17.5913 6.96984 18.0386C7.15651 18.3205 7.4647 18.4722 7.77873 18.4722C7.96345 18.4722 8.15109 18.4187 8.31734 18.3088C9.37901 17.6001 10.6137 17.3415 11.689 17.2773C11.6803 17.3512 11.6666 17.4241 11.6666 17.4999C11.6666 18.5733 12.5378 19.4444 13.6111 19.4444C14.6844 19.4444 15.5555 18.5733 15.5555 17.4999C15.5555 17.2938 15.5147 17.0994 15.4554 16.9127V16.9127ZM27.1211 16.9118C27.1434 16.8612 27.1784 16.8194 27.1921 16.764C27.3233 16.2429 27.0064 15.7149 26.4853 15.5847C26.3103 15.5409 22.1433 14.5347 18.9048 16.6911C18.4576 16.9886 18.3371 17.5923 18.6355 18.0395C18.8222 18.3205 19.1314 18.4722 19.4454 18.4722C19.6301 18.4722 19.8178 18.4187 19.984 18.3088C21.0457 17.6001 22.2794 17.3424 23.3566 17.2783C23.3479 17.3522 23.3333 17.4241 23.3333 17.4999C23.3333 18.5733 24.2044 19.4444 25.2778 19.4444C26.3511 19.4444 27.2222 18.5733 27.2222 17.4999C27.2222 17.2938 27.1814 17.0984 27.1211 16.9118V16.9118Z" fill="#75101E"/>
</svg>
