<svg width="24" height="35" viewBox="0 0 24 35" fill="none" xmlns="http://www.w3.org/2000/svg">
<path d="M17.0286 20.3423C17.5823 20.6478 19.1823 21.5633 20.1619 22.4464C20.7308 22.9591 20.6564 23.3324 20.4759 24.2326L20.4597 24.3138C20.2821 25.2035 18.4491 31.0338 18.0892 32.1728L16.9742 31.8949C16.9608 31.3021 16.9331 29.2209 17.146 27.8805C17.2166 27.4318 17.2882 26.8914 17.3532 26.4017C17.42 25.8938 17.4849 25.4136 17.5288 25.1864C17.6023 24.8083 17.4811 24.5658 17.1365 24.3987C16.3994 24.0417 15.7646 23.7582 15.4524 23.6216L17.0286 20.3423V20.3423ZM6.8392 25.5052C7.34805 25.4432 7.82921 25.383 8.05929 25.3687C8.44403 25.3448 8.64929 25.1663 8.7228 24.7902C8.88319 23.9863 8.99775 23.3009 9.05217 22.9648L12.6227 23.6646C12.4661 24.2785 11.9821 26.0561 11.374 27.2275C11.0217 27.9063 10.6417 27.9282 9.72618 27.9807L9.64216 27.9855C8.73521 28.0399 2.63285 27.7316 1.43854 27.6705L1.42613 26.5201C1.99608 26.3587 4.00283 25.8079 5.35371 25.6752C5.80814 25.6332 6.34849 25.5663 6.8392 25.5052Z" fill="#DCB8BA"/>
<path d="M3.06388 28.1626L3.22236 27.8705C3.24241 27.8237 3.2195 27.7693 3.17081 27.7531C3.01806 27.7005 2.7097 27.5593 2.60182 27.5029C2.69538 27.7168 2.8023 28.0586 2.92164 28.1617C2.96746 28.2008 3.04002 28.218 3.06388 28.1626V28.1626Z" fill="#8899A6"/>
<path d="M0.753741 25.896C0.87785 25.7967 1.16139 25.748 1.33896 25.7309C1.46212 25.7185 1.78194 25.7089 2.05116 25.7242C2.17241 25.7309 2.31084 25.7461 2.36716 25.7624C2.54378 25.8139 2.62111 25.8874 2.66311 25.939C2.71371 26.001 2.71849 26.0669 2.70703 26.1003C2.66025 26.2368 2.4359 26.4727 2.33852 26.697C2.30606 26.7715 2.28697 26.845 2.29365 26.9128C2.31752 27.1591 2.63161 27.5171 2.86646 27.7825C3.00776 27.9419 3.12041 28.0679 3.12518 28.1166C3.12996 28.1691 3.11564 28.214 3.09177 28.2579V28.2598C3.02781 28.3773 2.88747 28.4995 2.792 28.8202C2.72994 29.0274 2.43972 29.9706 2.43972 29.9706C2.37003 30.2112 2.27742 30.2694 2.23828 30.3993C2.15713 30.6637 2.01393 31.374 1.94328 31.5984C1.87263 31.8227 1.70175 31.9191 1.57095 31.9373C1.43921 31.9554 1.36379 31.9249 1.36379 31.9249C1.36379 31.9249 1.05638 31.7864 0.853029 30.6341C0.706007 29.8017 0.835846 29.6728 0.946589 28.4221C1.05542 27.1696 0.753741 25.896 0.753741 25.896V25.896Z" fill="#DDA0AD"/>
<path d="M1.01088 27.7558C1.21996 27.6698 1.69826 27.3548 1.83192 27.0159C1.95316 26.7094 2.03526 25.8817 2.05054 25.7242C1.79373 25.7013 1.39944 25.7185 1.27247 25.7299C1.1054 25.7461 0.912551 25.7595 0.797034 25.8578L0.753119 25.896C0.754073 25.896 0.958377 27.2097 1.01088 27.7558V27.7558Z" fill="#75101E"/>
<path d="M2.84737 28.7038C2.91897 28.7038 2.98675 28.6638 3.02017 28.5941C3.06599 28.4986 3.02494 28.385 2.92947 28.3401L2.62493 28.196C2.52564 28.1501 2.4149 28.1921 2.37003 28.2866C2.32516 28.3821 2.36525 28.4957 2.46072 28.5406L2.76527 28.6848C2.792 28.6981 2.82064 28.7038 2.84737 28.7038V28.7038ZM2.65261 29.2614C2.73376 29.2614 2.80823 29.2098 2.834 29.1287C2.86646 29.0284 2.81109 28.9206 2.70989 28.8891L2.37194 28.7812C2.27647 28.7478 2.16477 28.8041 2.13231 28.9053C2.09985 29.0055 2.15522 29.1134 2.25642 29.1449L2.59438 29.2528C2.61347 29.2585 2.63256 29.2614 2.65261 29.2614ZM2.48841 29.8294C2.57815 29.8294 2.65739 29.7674 2.67553 29.6767C2.69557 29.5736 2.6297 29.4724 2.52659 29.4514L2.20964 29.3864C2.10081 29.3645 2.00534 29.4323 1.98433 29.5354C1.96428 29.6385 2.03016 29.7397 2.13326 29.7607L2.45022 29.8256C2.46358 29.8275 2.476 29.8294 2.48841 29.8294ZM0.0157692 26.1319C0.0214973 26.1061 0.0396357 26.0097 0.106464 25.8913C0.128422 25.8512 0.179975 25.8388 0.231528 25.8331C0.295492 25.8245 0.766153 25.7567 0.774745 25.8522C0.774745 25.8522 0.776653 25.9935 0.843481 26.0909C0.910309 26.1882 0.956136 26.4269 0.97332 26.6054C0.990504 26.783 1.06688 27.4523 1.04969 27.922C1.03251 28.3917 0.887397 29.2423 0.879759 29.5258C0.873077 29.8094 0.879761 30.2504 0.939906 30.5769C1.00005 30.9034 1.06497 31.1937 1.11461 31.3732C1.17858 31.6042 1.2645 31.7923 1.36283 31.925C1.36283 31.925 0.991458 31.9001 0.706961 31.3502C0.48261 30.9168 0.356591 30.4996 0.309811 30.0929C0.305993 30.0624 0.20957 28.9778 0.16279 28.4356C0.129376 28.0394 0.0720957 27.4064 0.0720957 27.4064C0.000494201 26.656 -0.0166902 26.2751 0.0157692 26.1319V26.1319Z" fill="#CCD6DD"/>
<path d="M16.1521 32.3551C16.092 32.2081 16.1263 31.9226 16.1597 31.747C16.1836 31.6257 16.2648 31.3155 16.3554 31.0625C16.3965 30.9489 16.45 30.82 16.4815 30.7703C16.5808 30.6157 16.6734 30.5632 16.7354 30.5374C16.8089 30.5059 16.8738 30.5202 16.9025 30.5412C17.0199 30.6252 17.1832 30.9069 17.3693 31.0644C17.4314 31.1169 17.4963 31.1551 17.5641 31.1684C17.8066 31.2152 18.239 31.0166 18.5608 30.8658C18.7536 30.7761 18.9064 30.7035 18.9541 30.7131C19.0057 30.7236 19.0448 30.7493 19.0801 30.7847L19.082 30.7856H19.0811C19.1756 30.8801 19.2529 31.0501 19.5336 31.2324C19.714 31.3498 20.537 31.8969 20.537 31.8969C20.748 32.0315 20.7776 32.1374 20.8902 32.2119C21.1212 32.3647 21.7609 32.7036 21.9566 32.8353C22.1513 32.9671 22.1962 33.158 22.1762 33.2888C22.1561 33.4196 22.1055 33.4836 22.1055 33.4836C22.1055 33.4836 21.8859 33.7394 20.7231 33.6067C19.883 33.5112 19.7971 33.3499 18.6286 32.8888C17.46 32.4277 16.1521 32.3551 16.1521 32.3551V32.3551Z" fill="#DDA0AD"/>
<path d="M18.0082 32.6373C17.9853 32.412 17.8192 31.8649 17.5318 31.6396C17.2731 31.4372 16.5017 31.1222 16.3556 31.063C16.2601 31.3026 16.1647 31.6854 16.1408 31.8105C16.1093 31.9757 16.0663 32.1637 16.1284 32.3031L16.1523 32.3566C16.1523 32.3556 17.4697 32.5323 18.0082 32.6373V32.6373Z" fill="#75101E"/>
<path d="M19.0313 31.5331C19.0838 31.5331 19.1354 31.5121 19.1736 31.4692L19.3989 31.2181C19.4686 31.1398 19.4619 31.0186 19.3836 30.9489C19.3044 30.8792 19.186 30.8849 19.1134 30.9642L18.8891 31.2152C18.8194 31.2935 18.8261 31.4148 18.9044 31.4845C18.9416 31.5169 18.9855 31.5331 19.0313 31.5331V31.5331ZM19.5364 31.9208C19.5965 31.9208 19.6576 31.8912 19.6939 31.8367L19.8934 31.5427C19.9526 31.4549 19.9306 31.3365 19.8428 31.2773C19.7579 31.2191 19.6366 31.2401 19.5784 31.3279L19.3788 31.6219C19.3196 31.7098 19.3416 31.8281 19.4294 31.8873C19.4609 31.9102 19.4982 31.9208 19.5364 31.9208V31.9208ZM20.0805 32.231C20.1483 32.231 20.2151 32.1947 20.2495 32.1298L20.4013 31.8444C20.451 31.7508 20.4156 31.6353 20.3221 31.5857C20.2323 31.536 20.1139 31.5704 20.0634 31.6649L19.9116 31.9503C19.8619 32.0439 19.8972 32.1594 19.9908 32.2091C20.0185 32.2243 20.05 32.231 20.0805 32.231V32.231ZM16.1682 33.1294C16.1453 33.117 16.0575 33.0721 15.963 32.9747C15.9315 32.9423 15.9334 32.8898 15.942 32.8382C15.9525 32.7742 16.0212 32.3045 16.1148 32.3227C16.1148 32.3227 16.2513 32.3609 16.363 32.3246C16.4747 32.2883 16.7172 32.3122 16.8928 32.3456C17.0685 32.38 17.7311 32.4964 18.1769 32.6463C18.6227 32.7962 19.396 33.1771 19.6662 33.265C19.9364 33.3518 20.3612 33.4702 20.6915 33.5055C21.0219 33.5409 21.3188 33.5609 21.504 33.5647C21.7436 33.5685 21.9489 33.5409 22.1035 33.4836C22.1035 33.4836 21.9737 33.833 21.3665 33.9495C20.8872 34.0421 20.451 34.044 20.0481 33.9733C20.0175 33.9676 18.9502 33.7528 18.4175 33.643C18.028 33.5628 17.4055 33.4377 17.4055 33.4377C16.6666 33.2936 16.2962 33.2019 16.1682 33.1294V33.1294Z" fill="#CCD6DD"/>
<path d="M17.4096 20.235C16.705 19.8703 14.3775 18.7189 12.787 18.5547C12.6418 18.5395 11.3301 22.2818 11.5067 22.3382C12.2352 22.573 14.0662 23.1945 15.4534 23.9306C15.6004 24.0089 15.7761 23.9726 15.8668 23.8447C16.2782 23.2671 17.3456 21.6899 17.5833 20.5644C17.611 20.4326 17.5375 20.3009 17.4096 20.235Z" fill="#DDA0AD"/>
<path d="M12.8286 23.9557C13.0158 23.1967 13.5867 20.6993 13.3881 19.1355C13.3699 18.9923 9.86529 18.4815 9.86529 18.4815C9.69822 18.4615 9.29248 21.4258 8.90583 22.9256C8.86478 23.0841 8.93733 23.2445 9.07863 23.3027C9.7154 23.5653 11.4405 24.2278 12.5565 24.1973C12.6864 24.1934 12.7943 24.0922 12.8286 23.9557V23.9557Z" fill="#DDA0AD"/>
<path d="M15.7702 10.4769C15.879 11.0879 15.5229 11.8431 14.111 12.1391C12.699 12.435 11.6727 12.3997 10.9376 12.3472C10.3142 12.3023 10.4001 13.256 10.2588 14.2546C10.1175 15.2571 10.0287 16.564 10.085 16.7683C10.1805 17.113 10.7743 17.2256 10.5041 17.8404C10.234 18.4543 10.1901 18.7904 9.60483 18.5946C9.01961 18.3989 8.4382 18.187 8.27209 17.87C8.10597 17.5531 8.68261 16.8533 8.6912 16.4733C8.69788 16.1926 8.41148 12.6813 8.42866 12.2679C8.44966 11.7639 8.46207 11.0736 9.2726 10.7576C10.0831 10.4416 13.1945 9.63682 14.0193 9.47643C14.89 9.30745 15.626 9.66641 15.7702 10.4769V10.4769Z" fill="#DCB8BA"/>
<path d="M14.1529 6.05355C13.857 5.67072 13.6317 5.22106 13.5219 4.66448C13.1314 2.67586 14.2799 0.776038 16.0881 0.421849C17.8953 0.0667055 20.3679 1.40422 20.3126 3.43007C20.2581 5.44159 19.1393 8.4078 17.4552 7.90755C17.0103 7.7758 16.5654 7.63069 16.1425 7.45503C15.9621 7.66888 15.8322 8.48704 15.9067 9.18778C16.0976 10.973 13.6336 11.1592 13.4445 9.37108C13.2947 7.95624 14.1777 7.05692 14.1529 6.05355Z" fill="#DCB8BA"/>
<path d="M8.99017 2.35036C10.2418 2.337 11.3731 1.05199 12.6609 1.87206C12.913 2.03245 13.0963 2.19379 13.2376 2.35227C13.461 1.67349 13.8447 1.04722 14.4777 0.635745C15.0963 0.232868 15.8553 -0.0678586 16.5723 0.0132898C20.9419 0.505908 20.7051 3.66592 20.3729 3.96187C20.0407 4.25783 19.1328 3.41579 18.4616 3.32319C18.1485 3.27927 17.4678 3.27259 17.1069 3.79099C16.8148 4.21105 16.7145 5.06072 16.7145 5.06072C16.7145 5.06072 16.7031 4.09458 16.6754 3.75471C16.6496 3.43775 16.3355 3.07306 15.9107 3.54277C15.5412 3.95137 15.7293 4.75331 15.9861 4.83732C16.1837 4.90224 15.863 5.38627 15.3675 5.75478C14.4643 6.42687 13.7626 6.16338 13.6624 6.12615C13.5612 6.08892 13.2185 6.0135 13.0438 4.85355C13.0189 4.69221 13.0018 4.51941 12.9913 4.34088C12.6342 4.6502 12.049 5.01776 11.247 5.02349C10.3601 5.03017 8.74672 4.5786 7.82354 3.47594C7.11325 2.62722 6.82112 1.22765 6.82112 1.22765C7.19822 1.93221 8.04598 2.36086 8.99017 2.35036V2.35036Z" fill="#292F33"/>
<path d="M11.1658 10.1846C11.8608 8.55877 12.868 7.70528 14.2485 8.16639C15.4753 8.57691 16.0834 9.26524 16.4452 10.0376C16.6209 10.4128 17.3054 11.883 16.8901 12.8377C16.0777 14.705 14.7488 18.435 14.5149 19.5768C14.5149 19.5768 14.2074 19.888 12.2207 19.6379C10.4803 19.4183 9.61254 19.2522 9.61254 19.2522C9.87699 16.7758 10.0441 12.8109 11.1658 10.1846V10.1846Z" fill="#75101E"/>
<path d="M13.478 10.3066C14.0289 9.95145 14.9091 9.99059 15.7731 11.245C16.6371 12.4995 17.0218 13.5134 17.27 14.2504C17.481 14.8757 18.3746 14.4031 19.4047 14.1339C20.4386 13.8628 21.7485 13.416 21.9241 13.2776C22.221 13.0437 22.0883 12.4203 22.7967 12.4317C23.5051 12.4441 23.8497 12.3496 23.8975 12.9998C23.9452 13.6499 23.9767 14.302 23.7352 14.5931C23.4936 14.8843 22.5781 14.6084 22.2039 14.7545C21.928 14.8624 18.6247 16.5732 18.2152 16.7249C17.7149 16.9102 17.038 17.1794 16.4003 16.5187C15.7626 15.8581 13.7091 13.1563 13.2164 12.4174C12.698 11.6403 12.7477 10.7772 13.478 10.3066V10.3066Z" fill="#DCB8BA"/>
</svg>
