<svg width="28" height="31" viewBox="0 0 28 31" fill="none" xmlns="http://www.w3.org/2000/svg">
<path d="M20.2279 23.0104C19.7717 22.982 19.6615 22.6936 19.6184 22.4792C19.4807 21.7888 19.3817 21.1973 19.3317 20.8908L16.229 21.4995C16.3736 22.0625 16.7946 23.5984 17.3232 24.6151C17.628 25.2023 17.9353 25.2204 18.7575 25.2677C18.7575 25.2677 22.1796 25.148 24.3896 25.0637C25.1515 25.0344 25.2273 23.7895 24.5747 23.6371C23.9282 23.4856 23.2015 23.3393 22.6153 23.2816C22.2149 23.2437 20.4346 23.0233 20.2279 23.0104V23.0104ZM9.52589 20.3691C9.03516 20.8116 9.09543 21.1138 9.25728 21.9213C9.25728 21.9213 10.2155 25.1394 10.8534 27.259C11.0816 28.0175 12.3153 27.8109 12.2989 27.1402C12.2825 26.4764 12.2412 25.7369 12.1491 25.1558C12.0863 24.7572 11.8512 22.9794 11.8116 22.7762C11.7238 22.326 11.9752 22.1478 12.1723 22.0531C12.806 21.7466 13.3527 21.5003 13.6359 21.3764L12.2662 18.5259C11.7582 18.8074 10.3773 19.6012 9.52589 20.3691V20.3691Z" fill="#F7DECE"/>
<path d="M26.4292 23.2087C26.2613 23.1932 25.663 23.1863 25.4486 23.2362L24.1142 23.3094C24.0471 23.3111 23.9963 23.3688 24.0014 23.4359C24.0161 23.6297 24.2674 24.2099 24.0169 24.6619C23.849 24.9641 23.4522 25.088 23.4246 25.2465C23.416 25.2964 23.4522 25.3429 23.503 25.348C23.503 25.348 23.7475 25.3377 23.961 25.3506C24.1478 25.4367 24.4999 25.5073 24.6807 25.7019C24.7349 25.8293 24.889 25.9455 24.9941 26.2907C25.056 26.4965 25.3488 27.4358 25.3488 27.4358C25.4185 27.6751 25.5115 27.7328 25.5519 27.8611C25.6337 28.1245 25.7784 28.8313 25.8498 29.0551C25.9213 29.279 26.0909 29.3737 26.2226 29.3918C26.3534 29.409 26.4283 29.378 26.4283 29.378C26.4283 29.378 26.7598 29.0663 26.9793 27.6476C27.1085 26.815 27.0611 23.4256 27.0611 23.4256L26.9371 23.3275C26.814 23.2285 26.6066 23.225 26.4292 23.2087V23.2087Z" fill="#DDA0AD"/>
<path d="M24.4784 25.6814C24.45 25.6814 24.4216 25.6745 24.3949 25.6598C24.3114 25.6142 24.2813 25.5092 24.3278 25.4257L24.4741 25.1614C24.5206 25.0779 24.6274 25.0486 24.7074 25.0942C24.7909 25.1399 24.8211 25.2449 24.7746 25.3284L24.6282 25.5927C24.5981 25.6495 24.5387 25.6814 24.4784 25.6814V25.6814Z" fill="#CCD6DD"/>
<path d="M26.764 25.2248C26.5548 25.1404 26.0779 24.8279 25.9436 24.4904C25.8222 24.1857 25.7361 23.3609 25.7206 23.2051C25.9763 23.181 26.3689 23.1965 26.4954 23.2085C26.6624 23.224 26.8811 23.249 26.9965 23.3463C27.0068 23.3549 26.8071 24.7582 26.764 25.2248V25.2248Z" fill="#75101E"/>
<path d="M26.9923 23.3267C26.9923 23.3267 26.9905 23.4679 26.9243 23.5644C26.858 23.6616 26.8132 23.9001 26.796 24.0775C26.7796 24.2548 26.7056 24.922 26.7245 25.3895C26.7435 25.8578 26.8915 26.7041 26.8993 26.9865C26.907 27.2689 26.9019 27.7088 26.8433 28.0342C26.7839 28.3597 26.7211 28.6498 26.672 28.828C26.6092 29.0579 26.5248 29.2464 26.4266 29.3781C26.4266 29.3781 26.7968 29.3523 27.0784 28.8039C27.3005 28.3709 27.4244 27.955 27.4692 27.5495C27.4727 27.5185 27.5656 26.4381 27.6095 25.8983C27.6414 25.5031 27.6956 24.873 27.6956 24.873C27.7654 24.1257 27.7817 23.746 27.7482 23.6031C27.7421 23.5781 27.737 23.4722 27.6569 23.3629C27.6061 23.2914 27.0017 23.2312 26.9923 23.3267V23.3267ZM24.8641 26.1566C24.8004 26.1566 24.7384 26.1204 24.7083 26.0593C24.6669 25.9741 24.7031 25.8708 24.7892 25.8294L25.0612 25.6986C25.149 25.6581 25.2498 25.6934 25.292 25.7795C25.3333 25.8647 25.2971 25.968 25.211 26.0094L24.939 26.1402C24.9149 26.1514 24.8899 26.1566 24.8641 26.1566ZM25.0957 26.7213C25.0225 26.7213 24.9545 26.674 24.9312 26.6C24.9037 26.5087 24.9536 26.4123 25.0449 26.3847L25.3496 26.29C25.4435 26.2607 25.5373 26.3124 25.5657 26.4037C25.5933 26.4949 25.5433 26.5913 25.4521 26.6189L25.1473 26.7136C25.1292 26.7196 25.1129 26.7213 25.0957 26.7213V26.7213ZM25.2937 27.3059C25.2119 27.3059 25.1396 27.2482 25.1249 27.1647C25.1069 27.0709 25.1697 26.9813 25.2627 26.9641L25.5502 26.9116C25.651 26.8952 25.7336 26.9564 25.75 27.0502C25.768 27.144 25.7052 27.2336 25.6122 27.2508L25.3247 27.3033L25.2937 27.3059Z" fill="#CCD6DD"/>
<path d="M13.1856 28.8322C13.159 28.6652 13.0169 28.085 12.9153 27.8895L12.5133 26.6154C12.4952 26.5508 12.4263 26.5155 12.3626 26.5379C12.1784 26.6008 11.679 26.9882 11.1788 26.8573C10.8448 26.7695 10.6261 26.4157 10.466 26.4286C10.4152 26.4329 10.3791 26.4794 10.3868 26.5293C10.3868 26.5293 10.4574 26.7635 10.4979 26.9735C10.4608 27.1758 10.4798 27.534 10.336 27.7578C10.2258 27.8422 10.1518 28.0204 9.84356 28.2072C9.66019 28.3183 8.82252 28.8348 8.82252 28.8348C8.60729 28.9622 8.57543 29.0664 8.46093 29.137C8.2259 29.2816 7.57763 29.5976 7.37876 29.7224C7.17989 29.8473 7.12995 30.0349 7.14545 30.1667C7.16095 30.2975 7.20916 30.363 7.20916 30.363C7.20916 30.363 7.59313 30.6066 9.02225 30.4671C9.86078 30.3853 13.1323 29.4986 13.1323 29.4986L13.1968 29.3548C13.2623 29.2102 13.2141 29.0079 13.1856 28.8322V28.8322Z" fill="#DDA0AD"/>
<path d="M10.7658 27.7608C10.7511 27.7608 10.7373 27.759 10.7218 27.7556L10.4291 27.679C10.3379 27.6549 10.2819 27.561 10.306 27.4689C10.3301 27.3768 10.4197 27.3208 10.5161 27.3458L10.8088 27.4224C10.9001 27.4465 10.956 27.5404 10.9319 27.6325C10.9121 27.71 10.8424 27.7608 10.7658 27.7608Z" fill="#CCD6DD"/>
<path d="M11.3158 29.6562C11.3459 29.4323 11.5293 28.8934 11.8237 28.679C12.0889 28.4862 12.8663 28.1978 13.0135 28.1436C13.1005 28.3855 13.1831 28.7694 13.2029 28.8951C13.2296 29.0604 13.2546 29.28 13.1883 29.4169C13.1452 29.5072 11.8565 29.5701 11.3158 29.6562V29.6562Z" fill="#75101E"/>
<path d="M13.2115 29.4069C13.2115 29.4069 13.0747 29.4405 12.9645 29.4001C12.8543 29.3596 12.6123 29.376 12.4359 29.4035C12.2602 29.4319 11.5956 29.5258 11.1471 29.6601C10.6985 29.7952 9.91509 30.1482 9.64304 30.2257C9.37099 30.3032 8.94398 30.4073 8.61424 30.4314C8.28451 30.4547 7.9875 30.4659 7.80326 30.4624C7.56479 30.459 7.36161 30.4237 7.20923 30.3617C7.20923 30.3617 7.32631 30.7138 7.92723 30.8498C8.40246 30.9575 8.8355 30.9747 9.23927 30.917C9.27026 30.9127 10.3395 30.7345 10.8742 30.6432C11.2641 30.5761 11.8883 30.4728 11.8883 30.4728C12.6296 30.3548 13.0015 30.2756 13.1315 30.2085C13.1547 30.1964 13.2554 30.1654 13.3415 30.0604C13.3984 29.9924 13.3062 29.3915 13.2115 29.4069V29.4069ZM10.3034 28.4083C10.2543 28.4083 10.2061 28.3876 10.1716 28.3472L9.97621 28.1156C9.91509 28.0433 9.92456 27.9339 9.99688 27.8728C10.0692 27.8125 10.1777 27.8203 10.2397 27.8935L10.4351 28.125C10.4962 28.1974 10.4867 28.3067 10.4144 28.3678C10.3826 28.3954 10.343 28.4083 10.3034 28.4083ZM9.78595 28.8129C9.72827 28.8129 9.67145 28.7836 9.6396 28.7311L9.47258 28.4591C9.42178 28.3782 9.44761 28.2723 9.52854 28.2223C9.60774 28.1733 9.71622 28.1974 9.76443 28.2791L9.93145 28.5512C9.98224 28.6321 9.95641 28.738 9.87549 28.788C9.84794 28.8052 9.81694 28.8129 9.78595 28.8129V28.8129ZM9.22377 29.1435C9.1592 29.1435 9.09636 29.1065 9.06709 29.0436L8.94484 28.7785C8.90523 28.6924 8.94311 28.5899 9.02921 28.5503C9.11616 28.5107 9.21861 28.5478 9.25821 28.6347L9.38046 28.8999C9.42006 28.986 9.38218 29.0884 9.29609 29.128C9.27285 29.1383 9.24874 29.1435 9.22377 29.1435Z" fill="#CCD6DD"/>
<path d="M11.7514 18.4287C12.4005 18.0921 14.5442 17.0289 16.0112 16.8799C16.1455 16.8662 16.2652 16.9471 16.3091 17.0676L17.393 20.0249C17.4489 20.1764 17.3646 20.3451 17.2019 20.3976C16.5303 20.6137 14.8429 21.1871 13.5653 21.8664C13.4302 21.9387 13.2683 21.9051 13.184 21.7854C12.8034 21.2482 11.8142 19.7812 11.593 18.7352C11.5663 18.6112 11.6334 18.489 11.7514 18.4287V18.4287Z" fill="#DDA0AD"/>
<path d="M16.0353 21.9724C15.8743 21.2595 15.3905 18.9161 15.61 17.4594C15.6298 17.326 15.7366 17.2313 15.8614 17.2192L18.9443 16.9188C19.1027 16.9033 19.2422 17.0273 19.2517 17.1986C19.2921 17.9028 19.4221 19.6797 19.7545 21.0882C19.7897 21.2371 19.7174 21.3852 19.584 21.4369C18.9788 21.6693 17.3379 22.2547 16.2875 22.2048C16.1636 22.1979 16.0646 22.1015 16.0353 21.9724Z" fill="#DDA0AD"/>
<path d="M13.1185 9.15499C13.0867 9.68618 13.2666 10.4782 14.4986 10.5884C15.7297 10.6986 16.916 10.4472 17.4188 10.2639C17.9216 10.0796 17.9672 10.9836 18.1867 11.8195C18.4071 12.6581 18.5656 13.3167 18.5371 13.4957C18.4907 13.7988 17.9121 14.4178 18.2031 14.9137C18.4941 15.4096 18.9332 15.8736 19.4118 15.6489C19.8905 15.4242 20.2805 15.1694 20.3898 14.8835C20.4992 14.5968 19.8509 13.8074 19.8096 13.5706C19.7683 13.3339 19.7398 10.2182 19.6839 9.86869C19.615 9.44168 19.5358 8.85539 18.8144 8.66771C18.0929 8.48004 15.239 8.15719 14.5227 8.0754C13.7014 7.98156 13.1607 8.45076 13.1185 9.15499V9.15499Z" fill="#F7DECE"/>
<path d="M14.0656 5.45914C14.3325 5.11392 14.5356 4.70842 14.6347 4.20651C14.9868 2.41322 13.9511 0.699996 12.3205 0.380596C10.6908 0.0603347 8.46102 1.26648 8.51096 3.09334C8.56003 4.9073 9.56902 7.58216 11.0877 7.13104C11.4889 7.01224 11.8901 6.88138 12.2714 6.72297C12.4342 6.91581 12.5512 7.65362 12.4841 8.28553C12.3119 9.89545 14.5339 10.0633 14.7044 8.45083C14.8396 7.17581 14.0432 6.36483 14.0656 5.45914Z" fill="#F7DECE"/>
<path d="M18.7215 2.12037C17.5928 2.10832 16.5726 0.949523 15.4113 1.68905C15.184 1.83368 15.0187 1.97918 14.8913 2.12209C14.6898 1.50998 14.3437 0.945218 13.7729 0.573302C13.2151 0.209995 12.5306 -0.0611934 11.8841 0.0119845C7.9428 0.456217 8.15717 3.30671 8.45677 3.5736C8.75637 3.84048 9.5751 3.08115 10.1803 2.99764C10.4627 2.95804 11.0765 2.95201 11.402 3.41949C11.6654 3.7983 11.7558 4.56451 11.7558 4.56451C11.7558 4.56451 11.7661 3.69326 11.7911 3.38678C11.8143 3.10095 12.0976 2.77208 12.4807 3.19651C12.8139 3.56499 12.6443 4.28816 12.4127 4.36392C12.2345 4.42246 12.5237 4.85894 12.9706 5.19126C13.785 5.79734 14.4178 5.55973 14.5082 5.52615C14.5994 5.49258 14.9085 5.42457 15.066 4.37855C15.0884 4.23306 15.1039 4.07723 15.1134 3.91624C15.4354 4.19518 15.9631 4.52663 16.6863 4.5318C17.4861 4.53782 18.941 4.13061 19.7735 3.13625C20.414 2.3709 20.6775 1.10879 20.6775 1.10879C20.3374 1.74243 19.5729 2.12984 18.7215 2.12037V2.12037Z" fill="#292F33"/>
<path d="M16.8945 8.37147C16.1222 7.01294 15.0228 6.37931 13.8572 6.92255C11.7591 7.90055 11.5809 9.37874 12.2834 11.5276C12.8025 13.116 14.0862 14.7026 14.7852 17.4912C14.7852 17.4912 16.7189 17.6651 19.4652 17.3706C19.4652 17.3698 18.7532 11.6412 16.8945 8.37147V8.37147Z" fill="#75101E"/>
<path d="M14.7467 8.72396C14.2275 8.46741 13.4544 8.48376 12.8217 9.67183C12.1889 10.8599 11.9874 11.8241 11.8118 12.5645C11.6766 13.1319 10.7133 12.9261 9.78176 12.7927C8.8468 12.6583 7.42112 12.5197 7.25238 12.4156C7.08795 12.314 5.95498 12.0833 5.55379 12.0772C5.26108 12.0729 3.82335 12.32 3.48587 12.6041C3.08899 12.9381 5.77419 12.8839 6.01438 13.1155C6.25458 13.3471 6.80126 13.5089 7.14391 13.5993C7.39702 13.6665 10.8321 14.691 11.2066 14.7831C11.6637 14.8959 12.2732 15.0767 12.7674 14.4336C13.2616 13.7896 14.7226 11.2697 15.1082 10.5861C15.5499 9.80269 15.4354 9.06402 14.7467 8.72396V8.72396Z" fill="#F7DECE"/>
<path d="M3.10176 21.8752C4.81488 21.8752 6.20364 20.4864 6.20364 18.7733C6.20364 17.0601 4.81488 15.6714 3.10176 15.6714C1.38864 15.6714 -0.00012207 17.0601 -0.00012207 18.7733C-0.00012207 20.4864 1.38864 21.8752 3.10176 21.8752Z" fill="#C46471"/>
<path d="M3.93519 18.6235C4.59293 19.2331 5.28941 19.7195 5.94027 20.0139C6.0453 19.7754 6.11331 19.5206 6.1555 19.2554C5.61484 18.9946 5.03889 18.5865 4.4836 18.076L5.60623 16.9534C5.45299 16.7424 5.27133 16.5582 5.0716 16.392L3.93519 17.5284C3.37904 16.9241 2.93825 16.2913 2.68256 15.7119C2.41912 15.7481 2.16343 15.8058 1.92581 15.9039C1.937 15.9306 1.93959 15.9547 1.95164 15.9814C2.24091 16.6572 2.74971 17.389 3.38679 18.0769L2.26932 19.1935C1.58403 18.559 0.855693 18.0527 0.183317 17.7626C0.0972257 18.0123 0.0438489 18.2749 0.0240479 18.5495C0.571591 18.8095 1.15788 19.2227 1.72178 19.7419L0.724834 20.7388C0.890991 20.9385 1.07609 21.1211 1.28615 21.2734L2.26932 20.2903C2.77898 20.8438 3.15004 21.3767 3.39195 21.8425C3.66314 21.8167 3.92314 21.7624 4.16936 21.6712C3.86288 21.0246 3.38248 20.3436 2.82289 19.7367L3.93519 18.6235V18.6235Z" fill="#C1694F"/>
</svg>
