<svg width="34" height="33" viewBox="0 0 34 33" fill="none" xmlns="http://www.w3.org/2000/svg">
<path d="M11.7487 4.45042C10.8069 5.39228 12.3374 5.07864 13.2792 6.96234C14.2211 8.84605 17.0466 7.90419 16.1048 6.02049C15.9061 5.62209 15.1215 4.98822 14.4744 4.50976C14.4744 4.50976 15.0264 3.86271 14.7316 3.1761C14.4368 2.48949 11.7487 4.45042 11.7487 4.45042Z" fill="#EEC2AD"/>
<path d="M11.3749 0.648364C9.92448 0.686038 8.77919 1.89161 8.81592 3.34206C8.8536 4.79251 10.0592 5.9378 11.5096 5.90107C12.9601 5.8634 14.1054 4.65783 14.0686 3.20738C14.0319 1.75598 12.8254 0.61069 11.3749 0.648364Z" fill="#EEC2AD"/>
<path d="M18.8862 2.1153C18.0809 2.33852 17.1051 2.64462 15.6264 1.5662C14.5706 0.79577 13.5854 0.539586 11.5115 0.993559C9.30943 1.47579 7.76197 3.09766 9.32639 3.54504C10.0092 3.74 10.5009 3.47911 11.5313 3.37173C13.0429 3.21445 13.657 4.4916 15.1235 4.49065C17.9924 4.48689 20.088 1.78189 18.8862 2.1153V2.1153Z" fill="black"/>
<path d="M17.9886 13.5552C17.9886 13.5552 15.1631 15.4389 15.1631 16.3807C15.1631 17.3226 18.9305 20.1481 19.8723 21.09C20.8142 22.0318 22.6979 22.0318 21.756 20.1481C20.8142 18.2644 17.9886 13.5552 17.9886 13.5552Z" fill="black"/>
<path d="M19.5275 20.1679C19.5275 20.1679 20.6323 20.911 21.3754 19.8053C22.1186 18.6996 22.6611 21.4733 22.6611 21.4733C22.6611 21.4733 20.2509 23.8647 18.4029 24.2273C16.555 24.5899 17.2982 23.4842 18.0403 22.3794L19.5275 20.1679V20.1679Z" fill="#A0041E"/>
<path d="M6.68635 19.2061C3.04515 19.2061 0.0933838 22.1578 0.0933838 25.799C0.0933838 29.4402 3.04515 32.392 6.68635 32.392C10.3275 32.392 13.2793 29.4402 13.2793 25.799C13.2793 22.1578 10.3285 19.2061 6.68635 19.2061ZM6.68635 30.5083C4.08589 30.5083 1.97709 28.4004 1.97709 25.799C1.97709 23.1976 4.08589 21.0898 6.68635 21.0898C9.2868 21.0898 11.3956 23.1976 11.3956 25.799C11.3956 28.4004 9.28774 30.5083 6.68635 30.5083ZM27.4071 19.2061C23.7668 19.2061 20.8141 22.1578 20.8141 25.799C20.8141 29.4402 23.7668 32.392 27.4071 32.392C31.0492 32.392 34 29.4402 34 25.799C34 22.1578 31.0492 19.2061 27.4071 19.2061ZM27.4071 30.5083C24.8066 30.5083 22.6978 28.4004 22.6978 25.799C22.6978 23.1976 24.8066 21.0898 27.4071 21.0898C30.0085 21.0898 32.1163 23.1976 32.1163 25.799C32.1163 28.4004 30.0085 30.5083 27.4071 30.5083Z" fill="#292F33"/>
<path d="M20.814 17.3227C20.814 16.8019 20.3582 16.3809 19.794 16.3809H9.58997C9.02674 16.3809 8.56995 16.8019 8.56995 17.3227C8.56995 17.8436 9.02674 18.2646 9.58997 18.2646H19.7931C20.3582 18.2646 20.814 17.8436 20.814 17.3227ZM28.3488 25.7994C28.3488 25.2785 27.9278 24.8575 27.407 24.8575H17.0466C16.5267 24.8575 16.1048 25.2785 16.1048 25.7994C16.1048 26.3202 16.5267 26.7412 17.0466 26.7412H27.407C27.9278 26.7412 28.3488 26.3202 28.3488 25.7994Z" fill="#8BA3A7"/>
<path d="M20.0833 14.4971L16.1595 25.4828C15.9853 25.9716 16.2405 26.5113 16.7303 26.6856C16.8348 26.7232 16.9412 26.7411 17.0467 26.7411C17.4338 26.7411 17.7964 26.501 17.934 26.1158L22.0838 14.4971H20.0833Z" fill="#8BA3A7"/>
<path d="M27.408 26.7413C27.0972 26.7413 26.792 26.5868 26.6121 26.3052L20.0192 15.9448C19.7394 15.5059 19.8694 14.9238 20.3083 14.6441C20.7482 14.3644 21.3293 14.4944 21.609 14.9333L28.202 25.2936C28.4817 25.7325 28.3517 26.3146 27.9128 26.5943C27.7555 26.6932 27.5813 26.7413 27.408 26.7413V26.7413ZM17.9885 22.7233L10.0892 16.5787C9.67951 16.2584 9.08803 16.3338 8.7678 16.7444C8.44851 17.156 8.52292 17.7466 8.93357 18.0659L17.4102 24.6588C17.5816 24.7935 17.7851 24.8575 17.9876 24.8575H17.9885V22.7233V22.7233Z" fill="#8BA3A7"/>
<path d="M6.68643 26.7414C6.58847 26.7414 6.48769 26.7254 6.3888 26.6925C5.89527 26.5286 5.62873 25.9955 5.79355 25.501L8.40436 17.6686L5.1804 15.2499C4.76411 14.9382 4.68028 14.3476 4.99203 13.9313C5.30379 13.5169 5.89339 13.4312 6.31063 13.7429L10.6215 16.9763L7.58118 26.0972C7.44838 26.4918 7.08012 26.7414 6.68643 26.7414V26.7414Z" fill="#8BA3A7"/>
<path d="M24.9422 16.381C24.914 16.381 24.8867 16.3791 24.8584 16.3753L19.5162 15.7085C19.1659 15.6652 18.9097 15.3562 18.9323 15.004C18.9539 14.6517 19.2459 14.3776 19.5982 14.3776C19.6368 14.3776 23.4287 14.3607 25.2389 13.1542C25.4744 12.9969 25.7871 13.0063 26.015 13.1787C26.2401 13.3529 26.3324 13.6505 26.242 13.9208L25.5742 15.9242C25.4838 16.2001 25.2267 16.381 24.9422 16.381V16.381ZM10.4537 15.4391H5.74446C5.22456 15.4391 4.80261 15.0172 4.80261 14.4973C4.80261 13.9774 5.22456 13.5554 5.74446 13.5554H10.4537C10.9736 13.5554 11.3956 13.9774 11.3956 14.4973C11.3956 15.0172 10.9736 15.4391 10.4537 15.4391Z" fill="#292F33"/>
<path d="M20.8131 10.7295L17.0466 13.555L19.8722 16.3806L20.8131 10.7295Z" fill="#A0041E"/>
<path d="M18.9295 14.4971C18.9295 14.4971 17.0458 17.3226 17.0458 18.2645C17.0458 19.2063 17.9877 22.0319 17.9877 24.8575C17.9877 27.683 19.8714 27.683 19.8714 26.7412C19.8714 25.7993 21.3605 21.6373 19.8714 20.1482C18.9295 19.2063 21.7551 16.3808 21.7551 16.3808L18.9295 14.4971ZM14.8654 11.0094L12.2753 10.271C11.8553 12.1142 9.42907 14.4971 8.5701 14.4971C7.62825 14.4971 6.6864 14.4971 6.6864 15.4389C6.6864 16.3808 6.6864 16.3808 8.5701 16.3808C10.4538 16.3808 12.3375 14.4971 13.2794 13.5552C13.8906 12.943 14.5122 11.9004 14.8654 11.0094V11.0094Z" fill="#EEC2AD"/>
<path d="M20.8131 10.7299L17.9875 14.4973L21.755 17.3228C21.755 17.3228 26.4642 12.6136 26.4642 10.7299C26.4642 8.84615 23.6387 7.9043 23.6387 7.9043L20.8131 10.7299Z" fill="#DDA0AD"/>
<path d="M19.8713 5.07875C17.0457 4.1369 14.6111 4.68883 13.2783 6.0206C12.3365 6.96246 12.3365 7.90431 12.3365 9.78801C12.3365 9.95378 12.3082 10.129 12.2677 10.306L14.8522 11.0444C15.0424 10.565 15.163 10.1177 15.163 9.78801C15.163 8.84616 16.1048 8.84616 17.0467 9.78801C17.9885 10.7299 18.9304 11.6717 19.8722 11.6717C20.8141 11.6717 25.5234 7.90431 25.5234 7.90431C22.6969 6.96245 21.658 5.674 19.8713 5.07875V5.07875ZM17.9885 25.7995C17.9885 25.7995 18.9304 26.7413 19.8722 25.7995C20.8141 24.8576 20.8141 27.6832 20.8141 27.6832C20.8141 27.6832 17.9885 29.5669 16.1048 29.5669C14.2211 29.5669 15.163 28.625 16.1048 27.6832L17.9885 25.7995ZM10.4537 0.369493C12.3374 -0.572359 16.1048 0.369493 14.2211 2.2532C13.2793 3.19505 7.62817 4.1369 7.62817 4.1369C7.62817 3.19505 8.57003 1.31134 10.4537 0.369493Z" fill="#75101E"/>
</svg>
