<svg width="28" height="36" viewBox="0 0 28 36" fill="none" xmlns="http://www.w3.org/2000/svg">
<path d="M25.8432 21.5776C26.905 15.0358 22.4625 8.87191 15.9207 7.81014C9.3789 6.74837 3.21498 11.1908 2.15322 17.7326C1.09145 24.2745 5.5339 30.4384 12.0757 31.5001C18.6175 32.5619 24.7814 28.1195 25.8432 21.5776Z" fill="#0B0200"/>
<path d="M8.99902 15C12.865 15 15.999 11.866 15.999 8C15.999 4.13401 12.865 1 8.99902 1C5.13303 1 1.99902 4.13401 1.99902 8C1.99902 11.866 5.13303 15 8.99902 15Z" fill="#0B0200"/>
<path d="M14.999 22C21.0742 22 25.999 17.0751 25.999 11C25.999 4.92487 21.0742 0 14.999 0C8.92389 0 3.99902 4.92487 3.99902 11C3.99902 17.0751 8.92389 22 14.999 22Z" fill="#0B0200"/>
<path d="M25.999 20H1.99902V8L25.999 11V20Z" fill="#0B0200"/>
<path d="M22.999 27H4.99902C2.79002 27 0.999023 28.791 0.999023 31V36H26.999V31C26.999 28.791 25.208 27 22.999 27Z" fill="#75101E"/>
<path d="M21.999 32H22.999V36H21.999V32ZM4.99902 32H5.99902V36H4.99902V32Z" fill="#75101E"/>
<path d="M10.999 22V28C10.999 29.657 12.342 31 13.999 31C15.656 31 16.999 29.657 16.999 28V22H10.999V22Z" fill="#F7DECE"/>
<path d="M9.99902 5C9.99902 5 9.99602 10.308 4.99902 10.936V17C4.99902 21.971 9.02802 26 13.999 26C18.97 26 22.999 21.971 22.999 17V11.981C11.888 11.605 9.99902 5 9.99902 5V5Z" fill="#F7DECE"/>
<path d="M13.999 23C15.1036 23 15.999 22.5523 15.999 22C15.999 21.4477 15.1036 21 13.999 21C12.8945 21 11.999 21.4477 11.999 22C11.999 22.5523 12.8945 23 13.999 23Z" fill="#75101E"/>
<path d="M14.999 19.5H12.999C12.723 19.5 12.499 19.276 12.499 19C12.499 18.724 12.723 18.5 12.999 18.5H14.999C15.275 18.5 15.499 18.724 15.499 19C15.499 19.276 15.275 19.5 14.999 19.5Z" fill="#C1694F"/>
<path d="M1.55894 5.032L6.74794 1.209L8.38594 1.021V3.86L11.3899 4.553C12.0789 4.714 12.5089 5.402 12.3499 6.091C12.1919 6.78 11.5029 7.21 10.8139 7.051L6.72694 6.11L4.68194 8.155C4.33994 8.498 3.76594 8.818 3.16494 9.013L2.39094 15.393C2.39094 15.393 2.39094 16.392 1.39194 16.392C0.392944 16.392 0.392944 15.393 0.392944 15.393V7.398L1.55894 5.032V5.032Z" fill="#E0AA94"/>
<path d="M1.167 4.639L3.398 2.408L3.997 0H7.998V3.468L10.998 4.161C11.687 4.322 12.117 5.01 11.958 5.699C11.8 6.388 11.111 6.818 10.422 6.659L6.334 5.717L4.29 7.762C3.947 8.105 3.373 8.426 2.772 8.62L1.998 15.001C1.998 15.001 1.998 16 0.999 16C5.96046e-08 16 0 15.001 0 15.001V7.005L1.167 4.639V4.639Z" fill="#F7DECE"/>
<path d="M26.438 5.032L20.592 1.438L19.61 1.021V3.86L16.606 4.553C15.917 4.714 15.487 5.402 15.646 6.091C15.804 6.78 16.493 7.21 17.182 7.051L21.27 6.109L23.315 8.154C23.658 8.497 24.231 8.817 24.833 9.012L25.607 15.392C25.607 15.392 25.607 16.391 26.606 16.391C27.605 16.391 27.605 15.392 27.605 15.392V7.398L26.438 5.032Z" fill="#E0AA94"/>
<path d="M26.831 4.639L24.6 2.408L24 0H20.002V3.468L16.999 4.16C16.31 4.321 15.88 5.009 16.039 5.698C16.197 6.387 16.886 6.817 17.575 6.658L21.663 5.716L23.708 7.761C24.051 8.104 24.624 8.424 25.226 8.619L26 14.999C26 14.999 26 15.998 26.999 15.998C27.998 16 27.998 15.001 27.998 15.001V7.005L26.831 4.639V4.639Z" fill="#F7DECE"/>
<path d="M19.9041 15.0561C19.8161 14.9851 19.6911 14.9821 19.5991 15.0491C19.5931 15.0541 18.9691 15.5001 17.7481 15.5001C16.5281 15.5001 15.9031 15.0541 15.8981 15.0501C15.8071 14.9821 15.6811 14.9831 15.5921 15.0541C15.5031 15.1251 15.4731 15.2471 15.5191 15.3511C15.5491 15.4191 16.2701 17.0001 17.7481 17.0001C19.2271 17.0001 19.9471 15.4191 19.9771 15.3521C20.0231 15.2481 19.9931 15.1271 19.9041 15.0561V15.0561ZM12.4041 15.0561C12.3161 14.9851 12.1911 14.9821 12.0991 15.0491C12.0931 15.0541 11.4691 15.5001 10.2481 15.5001C9.02806 15.5001 8.40306 15.0541 8.39806 15.0501C8.30706 14.9821 8.18106 14.9831 8.09206 15.0541C8.00306 15.1251 7.97306 15.2471 8.01906 15.3511C8.04906 15.4191 8.77006 17.0001 10.2481 17.0001C11.7271 17.0001 12.4471 15.4191 12.4771 15.3521C12.5221 15.2481 12.4931 15.1271 12.4041 15.0561V15.0561Z" fill="#662113"/>
</svg>
