<svg width="36" height="36" viewBox="0 0 36 36" fill="none" xmlns="http://www.w3.org/2000/svg">
<path d="M26.8351 9.49853C26.5791 9.49853 26.3231 9.40053 26.1281 9.20553C25.7371 8.81453 25.7371 8.18253 26.1281 7.79153C26.1281 7.79153 34.9301 -0.376466 35.3201 0.0135344C35.7111 0.404534 27.5421 9.20553 27.5421 9.20553C27.3471 9.40053 27.0911 9.49853 26.8351 9.49853V9.49853Z" fill="#CCD6DD"/>
<path d="M28.6031 10.9735C28.0171 11.5595 27.0671 11.5585 26.4821 10.9735L24.3611 8.85246C23.7751 8.26646 23.7751 7.31646 24.3611 6.73046C24.9461 6.14446 28.1781 4.98346 28.7641 5.56946L29.7641 6.56946C30.3501 7.15446 29.1891 10.3875 28.6031 10.9735Z" fill="#8BA3A7"/>
<path d="M17.2282 25.1758C16.4472 25.9568 15.1812 25.9568 14.4002 25.1758L10.1572 20.9338C9.37616 20.1528 9.37616 18.8858 10.1572 18.1048L22.1782 6.08477C22.9592 5.30377 24.2262 5.30377 25.0062 6.08477L29.2492 10.3278C30.0302 11.1088 30.0302 12.3748 29.2492 13.1568L17.2282 25.1758Z" fill="#8BA3A7"/>
<path d="M10.1581 20.9338C9.37714 20.1528 9.37714 18.8858 10.1581 18.1048L22.1781 6.08477C22.9591 5.30377 24.2261 5.30377 25.0061 6.08477L10.1581 20.9338Z" fill="#F5F5F5"/>
<path d="M7.03607 32.5405L2.79407 28.2975L14.5711 16.5205L18.8141 20.7615L7.03607 32.5405Z" fill="#CCD6DD"/>
<path d="M7.51113 34.8935C6.92613 35.4795 5.97512 35.4795 5.38912 34.8935L0.439125 29.9435C-0.146875 29.3575 -0.145875 28.4085 0.439125 27.8225C1.02413 27.2365 1.97513 27.2365 2.56113 27.8225L7.51113 32.7725C8.09713 33.3575 8.09713 34.3075 7.51113 34.8935V34.8935ZM17.5821 27.6505C16.9971 28.2365 16.0461 28.2365 15.4611 27.6505L7.68313 19.8735C7.09712 19.2875 7.09813 18.3375 7.68313 17.7515C8.26812 17.1655 9.21913 17.1655 9.80513 17.7515L17.5831 25.5295C18.1681 26.1155 18.1681 27.0655 17.5821 27.6505V27.6505Z" fill="#99AAB5"/>
<path d="M14.0861 14.1768L13.0441 15.2188L13.0841 15.2588L20.1191 22.2938L21.1611 21.2518L14.0861 14.1768Z" fill="#292F33"/>
<path d="M14.0861 14.1765L13.0441 15.2185L13.0841 15.2585L14.4581 16.6325L15.5001 15.5905L14.0861 14.1765ZM22.3771 17.5095C22.0891 17.7975 22.0891 18.2635 22.3771 18.5515L23.1191 19.2935L24.1611 18.2515L23.4191 17.5095C23.1311 17.2215 22.6651 17.2215 22.3771 17.5095ZM24.2521 15.6345C23.9641 15.9225 23.9641 16.3885 24.2521 16.6765L24.9941 17.4185L26.0361 16.3765L25.2941 15.6345C25.0061 15.3465 24.5401 15.3465 24.2521 15.6345ZM27.1691 13.7595C26.8811 13.4715 26.4141 13.4715 26.1271 13.7595C25.8391 14.0475 25.8391 14.5135 26.1271 14.8015L26.8691 15.5435L27.9111 14.5015L27.1691 13.7595Z" fill="#66757F"/>
</svg>
