<svg width="31" height="31" viewBox="0 0 31 31" fill="none" xmlns="http://www.w3.org/2000/svg">
<path d="M19.2703 15.0042L29.1532 5.12125C30.3252 3.95025 30.3252 2.05025 29.1532 0.87825C27.9812 -0.29275 26.0832 -0.29275 24.9112 0.87825L15.0283 10.7612L5.14525 0.87925C3.97425 -0.29275 2.07425 -0.29275 0.90225 0.87925C-0.26875 2.05025 -0.26875 3.95025 0.90225 5.12225L10.7853 15.0042L0.87825 24.9112C-0.29275 26.0822 -0.29275 27.9822 0.87825 29.1532C1.46325 29.7392 2.23225 30.0323 2.99925 30.0323C3.76625 30.0323 4.53525 29.7392 5.12125 29.1532L15.0273 19.2472L24.9093 29.1293C25.4953 29.7153 26.2632 30.0082 27.0302 30.0082C27.7972 30.0082 28.5652 29.7153 29.1512 29.1293C30.3232 27.9583 30.3232 26.0582 29.1512 24.8872L19.2703 15.0042V15.0042Z" fill="#4C718D"/>
</svg>
