<svg width="35" height="35" viewBox="0 0 35 35" fill="none" xmlns="http://www.w3.org/2000/svg">
<path d="M35 17.5C35 27.1649 27.1649 35 17.5 35C7.83611 35 0 27.1649 0 17.5C0 7.83611 7.83611 0 17.5 0C27.1649 0 35 7.83611 35 17.5Z" fill="#DDA0AD"/>
<path d="M11.1806 19.4442C12.5229 19.4442 13.6111 17.9208 13.6111 16.0414C13.6111 14.1621 12.5229 12.6387 11.1806 12.6387C9.8382 12.6387 8.75 14.1621 8.75 16.0414C8.75 17.9208 9.8382 19.4442 11.1806 19.4442Z" fill="#75101E"/>
<path d="M23.8195 19.4442C25.1618 19.4442 26.25 17.9208 26.25 16.0414C26.25 14.1621 25.1618 12.6387 23.8195 12.6387C22.4771 12.6387 21.3889 14.1621 21.3889 16.0414C21.3889 17.9208 22.4771 19.4442 23.8195 19.4442Z" fill="#75101E"/>
<path d="M22.8326 27.1045C22.8219 27.0618 21.7194 22.8472 17.4999 22.8472C13.2805 22.8472 12.178 27.0618 12.1673 27.1045C12.1158 27.3116 12.2101 27.5236 12.3929 27.6334C12.5756 27.7423 12.8138 27.717 12.9723 27.5751C12.9811 27.5683 13.9572 26.7361 17.4999 26.7361C20.9902 26.7361 21.9887 27.543 22.0266 27.5751C22.119 27.6636 22.2395 27.7083 22.3611 27.7083C22.4427 27.7083 22.5254 27.6879 22.6002 27.6461C22.7908 27.5381 22.8861 27.3165 22.8326 27.1045Z" fill="#75101E"/>
<path d="M9.72222 29.1666C9.72222 31.8518 7.54639 34.0277 4.86111 34.0277C2.17583 34.0277 0 31.8518 0 29.1666C0 26.4813 3.88889 19.4443 4.86111 19.4443C5.83333 19.4443 9.72222 26.4813 9.72222 29.1666Z" fill="#8BA3A7"/>
<path d="M29.1666 12.6391C23.7669 12.6391 21.5814 8.39342 21.4909 8.21258C21.2508 7.73231 21.4453 7.148 21.9255 6.90786C22.4039 6.66772 22.9872 6.8612 23.2283 7.33856C23.3012 7.4805 24.9987 10.6947 29.1666 10.6947C29.7043 10.6947 30.1389 11.1302 30.1389 11.6669C30.1389 12.2045 29.7043 12.6391 29.1666 12.6391ZM5.83331 12.6391C5.29664 12.6391 4.86108 12.2036 4.86108 11.6669C4.86108 11.1302 5.29664 10.6947 5.83331 10.6947C10.7751 10.6947 11.6628 7.66134 11.6987 7.53203C11.8397 7.0187 12.3696 6.70759 12.8839 6.84272C13.3991 6.97786 13.7112 7.49703 13.5819 8.01425C13.5343 8.20286 12.3511 12.6391 5.83331 12.6391Z" fill="#75101E"/>
</svg>
