<svg width="34" height="36" viewBox="0 0 34 36" fill="none" xmlns="http://www.w3.org/2000/svg">
<path d="M34 17C34 26.389 26.389 34 17 34C7.612 34 0 26.389 0 17C0 7.612 7.612 0 17 0C26.389 0 34 7.612 34 17Z" fill="#DDA0AD"/>
<path d="M17 27C20.866 27 24 23.6421 24 19.5C24 15.3579 20.866 12 17 12C13.134 12 10 15.3579 10 19.5C10 23.6421 13.134 27 17 27Z" fill="#75101E"/>
<path d="M21.4681 27.3712C21.4681 27.3712 22.4651 26.6502 21.6331 25.7572C20.8011 24.8642 20.0121 25.8092 20.0121 25.8092L15.8641 29.6752C15.7951 29.4702 15.4051 28.9322 15.3141 28.7282L21.0691 23.3622C21.0691 23.3622 22.0671 22.6412 21.2331 21.7472C20.4011 20.8552 19.6111 21.7982 19.6111 21.7982L14.1981 26.8442C14.0731 26.6862 13.7371 26.3042 13.6041 26.1462L19.8801 20.2962C19.8801 20.2962 20.8771 19.5742 20.0441 18.6822C19.2121 17.7892 18.4231 18.7332 18.4231 18.7332L12.1451 24.5812C11.9951 24.4362 11.5331 23.9722 11.3811 23.8352L17.2471 18.3672C17.2471 18.3672 18.2431 17.6452 17.4111 16.7532C16.5781 15.8602 15.7901 16.8042 15.7901 16.8042L9.58707 22.5852L9.09007 23.0492L8.87007 23.2562C8.87007 23.2562 8.33207 24.0002 7.78307 23.4352L9.62507 19.2772C9.62507 19.2772 10.2051 18.2032 9.13207 17.6222C8.05707 17.0412 7.47707 18.1152 7.47707 18.1152L5.80907 20.8732C5.14607 21.9662 4.46007 23.0512 3.65007 24.0402C1.36607 26.8332 1.43907 30.9542 3.96807 33.6692C6.72707 36.6282 11.3641 36.7912 14.3231 34.0332L14.7701 33.6152L21.4681 27.3712V27.3712Z" fill="#C46471"/>
<path d="M10.016 6.07991C7.76099 6.68391 6.53599 8.04491 6.46099 8.12991C6.09699 8.54491 6.13799 9.1769 6.55199 9.5419C6.96699 9.9069 7.59799 9.86691 7.96299 9.45091C8.04199 9.36391 10.053 7.19791 13.773 7.95891C14.315 8.06991 14.843 7.7199 14.953 7.1799C15.064 6.6389 14.715 6.10991 14.174 5.99991C12.539 5.66391 11.148 5.77691 10.016 6.07991V6.07991ZM23.984 6.08091C22.852 5.77791 21.461 5.66491 19.825 5.99891C19.284 6.10991 18.935 6.63791 19.046 7.17891C19.158 7.71991 19.685 8.06891 20.226 7.95791C23.95 7.19591 25.957 9.36291 26.04 9.45491C26.407 9.86191 27.04 9.89891 27.45 9.53291C27.86 9.16691 27.901 8.5419 27.538 8.1289C27.463 8.0449 26.238 6.6849 23.984 6.08091V6.08091Z" fill="#75101E"/>
</svg>
