<svg width="36" height="36" viewBox="0 0 36 36" fill="none" xmlns="http://www.w3.org/2000/svg">
<path d="M36 18C36 27.941 27.941 36 18 36C8.06 36 0 27.941 0 18C0 8.06 8.06 0 18 0C27.94 0 36 8.06 36 18Z" fill="#8BA3A7"/>
<path d="M15.374 26.1222L13.859 23.8272C15.013 23.0652 16.465 22.6452 17.948 22.6452C19.438 22.6452 20.843 23.0472 22.01 23.8072L20.508 26.1122C19.083 25.1842 16.787 25.1882 15.374 26.1222V26.1222ZM28.038 13.0362C27.794 12.7362 21.267 11.5342 21.212 11.5342C21.094 11.5342 20.961 11.6232 20.937 11.7392C20.719 12.7662 20.885 13.8102 21.403 14.6802C21.924 15.5562 22.74 16.1502 23.699 16.3532C23.931 16.4022 24.17 16.4272 24.406 16.4272C26.152 16.4272 27.702 15.0912 28.092 13.2502C28.106 13.1752 28.086 13.0942 28.038 13.0362V13.0362ZM14.766 11.5342C14.71 11.5342 8.18302 12.7362 7.93902 13.0362C7.89102 13.0952 7.87102 13.1762 7.88702 13.2492C8.27602 15.0892 9.82602 16.4252 11.573 16.4252C11.809 16.4252 12.047 16.4002 12.28 16.3512C14.252 15.9342 15.491 13.8652 15.042 11.7382C15.018 11.6232 14.885 11.5342 14.766 11.5342V11.5342Z" fill="#4C718D"/>
<path d="M11.6571 29.6472C11.2131 29.6472 10.8001 29.3672 10.6521 28.9232C10.4671 28.3682 10.7671 27.7682 11.3211 27.5842C11.4161 27.5512 13.7741 26.7072 13.7741 24.3532C13.7741 21.9992 11.4161 21.1552 11.3161 21.1212C10.7661 20.9302 10.4701 20.3302 10.6571 19.7792C10.8441 19.2272 11.4371 18.9272 11.9911 19.1142C12.1501 19.1672 15.8911 20.4582 15.8911 24.3532C15.8911 28.2482 12.1501 29.5402 11.9911 29.5922C11.8811 29.6292 11.7681 29.6472 11.6571 29.6472V29.6472ZM24.3621 29.6472C24.2511 29.6472 24.1391 29.6292 24.0281 29.5922C23.8691 29.5392 20.1281 28.2482 20.1281 24.3532C20.1281 20.4582 23.8691 19.1662 24.0281 19.1142C24.5871 18.9272 25.1821 19.2292 25.3671 19.7832C25.5521 20.3362 25.2541 20.9342 24.7031 21.1212C24.6031 21.1552 22.2451 21.9992 22.2451 24.3532C22.2451 26.7072 24.6031 27.5512 24.7031 27.5852C25.2541 27.7762 25.5501 28.3762 25.3631 28.9272C25.2131 29.3692 24.8021 29.6472 24.3621 29.6472V29.6472Z" fill="#4C718D"/>
</svg>
