<svg width="36" height="36" viewBox="0 0 36 36" fill="none" xmlns="http://www.w3.org/2000/svg">
<path d="M36 18C36 27.941 27.941 36 18 36C8.059 36 0 27.941 0 18C0 8.059 8.059 0 18 0C27.941 0 36 8.059 36 18Z" fill="#DDA0AD"/>
<path d="M28.312 15.6119C28.137 15.4699 27.886 15.4649 27.702 15.5979C27.69 15.6069 26.441 16.4999 24 16.4999C21.56 16.4999 20.3099 15.6069 20.2999 15.5999C20.1169 15.4629 19.8649 15.4669 19.6889 15.6089C19.5109 15.7509 19.4509 15.9949 19.5429 16.2029C19.6029 16.3379 21.043 19.4999 24 19.4999C26.958 19.4999 28.397 16.3379 28.457 16.2029C28.549 15.9959 28.489 15.7539 28.312 15.6119ZM15.702 15.5979C15.69 15.6069 14.442 16.4999 12 16.4999C9.55895 16.4999 8.30995 15.6069 8.29995 15.5999C8.11695 15.4629 7.86595 15.4669 7.68895 15.6089C7.51095 15.7509 7.45095 15.9949 7.54295 16.2029C7.60295 16.3379 9.04295 19.4999 12 19.4999C14.958 19.4999 16.397 16.3379 16.457 16.2029C16.549 15.9959 16.489 15.7539 16.312 15.6119C16.136 15.4689 15.884 15.4649 15.702 15.5979ZM29.0009 12.9999C28.6959 12.9999 28.397 12.8619 28.2 12.5999C25.608 9.14391 21.2389 9.97191 21.1959 9.97991C20.6489 10.0879 20.1279 9.73691 20.0189 9.19591C19.9109 8.65491 20.2619 8.12791 20.8029 8.01891C21.0339 7.97191 26.46 6.94691 29.799 11.3989C30.131 11.8409 30.041 12.4679 29.599 12.7989C29.42 12.9349 29.2099 12.9999 29.0009 12.9999V12.9999ZM6.99895 12.9999C6.79095 12.9999 6.57995 12.9349 6.39995 12.7999C5.95795 12.4689 5.86895 11.8419 6.19995 11.3999C9.53895 6.94591 14.966 7.97391 15.196 8.01991C15.738 8.12791 16.0889 8.65491 15.9799 9.19691C15.8719 9.73691 15.346 10.0879 14.806 9.98191C14.62 9.94691 10.37 9.17391 7.79995 12.5999C7.60395 12.8619 7.30295 12.9999 6.99895 12.9999V12.9999ZM23.254 23.5769C23.066 23.4659 22.822 23.4909 22.6569 23.6369C22.6469 23.6449 21.644 24.4999 18 24.4999C14.359 24.4999 13.354 23.6459 13.354 23.6459C13.195 23.4859 12.95 23.4559 12.754 23.5639C12.559 23.6749 12.461 23.9029 12.516 24.1209C12.526 24.1649 13.66 28.4999 18 28.4999C22.34 28.4999 23.474 24.1649 23.485 24.1209C23.538 23.9079 23.441 23.6899 23.254 23.5769V23.5769Z" fill="#75101E"/>
</svg>
