<svg width="36" height="36" viewBox="0 0 36 36" fill="none" xmlns="http://www.w3.org/2000/svg">
<path d="M36 18C36 27.941 27.941 36 18 36C8.06 36 0 27.941 0 18C0 8.06 8.06 0 18 0C27.941 0 36 8.06 36 18Z" fill="#DDA0AD"/>
<path d="M18 33C20.7614 33 23 30.3137 23 27C23 23.6863 20.7614 21 18 21C15.2386 21 13 23.6863 13 27C13 30.3137 15.2386 33 18 33Z" fill="#75101E"/>
<path d="M5.99895 11C5.79095 11 5.57995 10.935 5.39995 10.8C4.95795 10.469 4.86895 9.842 5.19995 9.4C8.46195 5.05 12.816 5 13 5C13.552 5 14 5.448 14 6C14 6.551 13.555 6.998 13.004 7C12.849 7.002 9.43595 7.086 6.79995 10.6C6.60395 10.862 6.30295 11 5.99895 11ZM30.0009 11C29.6959 11 29.397 10.862 29.2 10.6C26.56 7.079 23.1389 7.002 22.9939 7C22.4439 6.994 22 6.544 22.003 5.995C22.006 5.444 22.45 5 23 5C23.184 5 27.5369 5.05 30.7999 9.4C31.1319 9.842 31.042 10.469 30.6 10.8C30.42 10.935 30.2099 11 30.0009 11V11ZM13.9139 15.5L15.707 13.707C16.098 13.316 16.098 12.684 15.707 12.293C15.316 11.902 14.684 11.902 14.293 12.293L12.5 14.086L10.707 12.293C10.316 11.902 9.68395 11.902 9.29295 12.293C8.90195 12.684 8.90195 13.316 9.29295 13.707L11.086 15.5L9.29295 17.293C8.90195 17.684 8.90195 18.316 9.29295 18.707C9.48795 18.902 9.74395 19 9.99995 19C10.256 19 10.512 18.902 10.707 18.707L12.5 16.914L14.293 18.707C14.488 18.902 14.744 19 15 19C15.256 19 15.512 18.902 15.707 18.707C16.098 18.316 16.098 17.684 15.707 17.293L13.9139 15.5V15.5ZM24.9139 15.5L26.707 13.707C27.098 13.316 27.098 12.684 26.707 12.293C26.316 11.902 25.6839 11.902 25.2929 12.293L23.5 14.086L21.707 12.293C21.316 11.902 20.6839 11.902 20.2929 12.293C19.9019 12.684 19.9019 13.316 20.2929 13.707L22.086 15.5L20.2929 17.293C19.9019 17.684 19.9019 18.316 20.2929 18.707C20.4879 18.902 20.744 19 21 19C21.256 19 21.512 18.902 21.707 18.707L23.5 16.914L25.2929 18.707C25.4879 18.902 25.744 19 26 19C26.256 19 26.512 18.902 26.707 18.707C27.098 18.316 27.098 17.684 26.707 17.293L24.9139 15.5V15.5Z" fill="#75101E"/>
</svg>
