<svg width="36" height="36" viewBox="0 0 36 36" fill="none" xmlns="http://www.w3.org/2000/svg">
<path d="M36 18C36 27.941 27.941 36 18 36C8.06 36 0 27.941 0 18C0 8.06 8.06 0 18 0C27.941 0 36 8.06 36 18Z" fill="#DDA0AD"/>
<path d="M29 28C31.7614 28 34 25.7614 34 23C34 20.2386 31.7614 18 29 18C26.2386 18 24 20.2386 24 23C24 25.7614 26.2386 28 29 28Z" fill="#C46471"/>
<path d="M7 28C9.76142 28 12 25.7614 12 23C12 20.2386 9.76142 18 7 18C4.23858 18 2 20.2386 2 23C2 25.7614 4.23858 28 7 28Z" fill="#C46471"/>
<path d="M24.5 22C27.5376 22 30 19.5376 30 16.5C30 13.4624 27.5376 11 24.5 11C21.4624 11 19 13.4624 19 16.5C19 19.5376 21.4624 22 24.5 22Z" fill="#F5F8FA"/>
<path d="M11.5 22C14.5376 22 17 19.5376 17 16.5C17 13.4624 14.5376 11 11.5 11C8.46243 11 6 13.4624 6 16.5C6 19.5376 8.46243 22 11.5 22Z" fill="#F5F8FA"/>
<path d="M11.5 19C12.8807 19 14 17.8807 14 16.5C14 15.1193 12.8807 14 11.5 14C10.1193 14 9 15.1193 9 16.5C9 17.8807 10.1193 19 11.5 19Z" fill="#292F33"/>
<path d="M24.5 19C25.8807 19 27 17.8807 27 16.5C27 15.1193 25.8807 14 24.5 14C23.1193 14 22 15.1193 22 16.5C22 17.8807 23.1193 19 24.5 19Z" fill="#292F33"/>
<path d="M22 30H14C13.448 30 13 29.553 13 29C13 28.447 13.448 28 14 28H22C22.553 28 23 28.447 23 29C23 29.553 22.553 30 22 30ZM30.0009 11C29.6959 11 29.397 10.862 29.2 10.6C26.56 7.079 23.1389 7.002 22.9939 7C22.4439 6.994 22 6.544 22.003 5.995C22.006 5.444 22.45 5 23 5C23.184 5 27.5369 5.05 30.7999 9.4C31.1319 9.842 31.042 10.469 30.6 10.8C30.42 10.935 30.2099 11 30.0009 11V11ZM5.99895 11C5.79095 11 5.57995 10.935 5.39995 10.8C4.95795 10.469 4.86895 9.842 5.19995 9.4C8.46195 5.05 12.816 5 13 5C13.552 5 14 5.448 14 6C14 6.551 13.555 6.998 13.004 7C12.849 7.002 9.43595 7.086 6.79995 10.6C6.60395 10.862 6.30295 11 5.99895 11Z" fill="#75101E"/>
</svg>
