<svg width="36" height="36" viewBox="0 0 36 36" fill="none" xmlns="http://www.w3.org/2000/svg">
<path d="M35.1154 17.5577C35.1154 27.2544 27.2544 35.1154 17.5577 35.1154C7.86194 35.1154 0 27.2544 0 17.5577C0 7.86194 7.86194 0 17.5577 0C27.2544 0 35.1154 7.86194 35.1154 17.5577Z" fill="#DDA0AD"/>
<path d="M11.2171 17.5578C12.5639 17.5578 13.6557 15.1559 13.6557 12.193C13.6557 9.23005 12.5639 6.82812 11.2171 6.82812C9.87035 6.82812 8.77856 9.23005 8.77856 12.193C8.77856 15.1559 9.87035 17.5578 11.2171 17.5578Z" fill="#75101E"/>
<path d="M23.8976 17.5578C25.2443 17.5578 26.3361 15.1559 26.3361 12.193C26.3361 9.23005 25.2443 6.82812 23.8976 6.82812C22.5508 6.82812 21.459 9.23005 21.459 12.193C21.459 15.1559 22.5508 17.5578 23.8976 17.5578Z" fill="#75101E"/>
<path d="M17.5576 21.4593C14.0236 21.4593 11.6787 21.0477 8.77873 20.4839C8.11642 20.3561 6.82788 20.4839 6.82788 22.4348C6.82788 26.3365 11.31 31.2136 17.5576 31.2136C23.8042 31.2136 28.2873 26.3365 28.2873 22.4348C28.2873 20.4839 26.9987 20.3552 26.3364 20.4839C23.4365 21.0477 21.0915 21.4593 17.5576 21.4593Z" fill="#75101E"/>
<path d="M8.77856 22.4355C8.77856 22.4355 11.7048 23.411 17.5574 23.411C23.41 23.411 26.3363 22.4355 26.3363 22.4355C26.3363 22.4355 24.3854 26.3373 17.5574 26.3373C10.7294 26.3373 8.77856 22.4355 8.77856 22.4355Z" fill="white"/>
</svg>
