<svg width="34" height="34" viewBox="0 0 34 34" fill="none" xmlns="http://www.w3.org/2000/svg">
<path d="M29.2896 18.5494L29.2907 18.5505C30.6725 19.9283 31.5239 21.8275 31.5239 23.9287C31.5239 28.1227 28.1226 31.524 23.9286 31.524C21.8348 31.524 19.9411 30.6782 18.5639 29.3042L17.7256 28.4679L11.1599 21.9015L21.7402 11.0111L29.2896 18.5494Z" stroke="#4C718D" stroke-width="4.25276"/>
<path d="M11.3422 22.0835L4.43773 15.179L4.13739 14.8526C2.88771 13.4945 2.12638 11.6983 2.12638 9.72164C2.12638 5.52659 5.52659 2.12638 9.72164 2.12638C11.6839 2.12638 13.4673 2.87565 14.8228 4.10909L21.9201 11.1955L16.6103 16.6609L11.3422 22.0835Z" stroke="#4C718D" stroke-width="4.25276"/>
</svg>
