<svg width="36" height="35" viewBox="0 0 36 35" fill="none" xmlns="http://www.w3.org/2000/svg">
<path d="M35.885 9.868C35.885 4.418 31.467 0 26.018 0C22.71 0 19.791 1.633 18 4.129C16.209 1.633 13.29 0 9.98299 0C4.53299 0 0.11499 4.417 0.11499 9.868C0.11499 10.64 0.21299 11.388 0.38099 12.109C1.75099 20.622 11.216 29.603 18 32.069C24.783 29.603 34.249 20.622 35.617 12.11C35.787 11.389 35.885 10.641 35.885 9.868Z" fill="#DDA0AD"/>
<path d="M36 13.0352C35 18.0352 32 21.0352 32 21.0352H4C4 21.0352 1 18.0352 0 13.0352H36Z" fill="#8BA3A7"/>
<path d="M14 16.0352V34.0352L9 29.0352L4 34.0352V16.0352H14Z" fill="#8BA3A7"/>
<path d="M16.802 7.22886L8.923 12.7439L1.045 7.22886C0.47 6.82686 0 7.07086 0 7.77286V22.4309C0 23.1339 0.48 23.3959 1.069 23.0129L8.923 17.9069L16.777 23.0129C17.365 23.3959 17.846 23.1339 17.846 22.4309V7.77286C17.847 7.07086 17.376 6.82686 16.802 7.22886Z" fill="#4C718D"/>
<path d="M9 19.0352C11.2091 19.0352 13 17.2443 13 15.0352C13 12.826 11.2091 11.0352 9 11.0352C6.79086 11.0352 5 12.826 5 15.0352C5 17.2443 6.79086 19.0352 9 19.0352Z" fill="#8BA3A7"/>
</svg>
