<svg width="36" height="36" viewBox="0 0 36 36" fill="none" xmlns="http://www.w3.org/2000/svg">
<path d="M36 18C36 27.941 27.941 36 18 36C8.059 36 0 27.941 0 18C0 8.059 8.059 0 18 0C27.941 0 36 8.059 36 18Z" fill="#DDA0AD"/>
<path d="M22 27.0001C22 29.7631 20.209 30.0001 18 30.0001C15.79 30.0001 14 29.7631 14 27.0001C14 24.2391 15.79 21.0001 18 21.0001C20.209 21.0001 22 24.2391 22 27.0001ZM30 15.0001C29.876 15.0001 29.75 14.9771 29.629 14.9281C24.4 12.8371 22.257 9.68708 22.168 9.55408C21.861 9.09408 21.9851 8.47308 22.445 8.16708C22.904 7.86108 23.522 7.98308 23.83 8.44108C23.849 8.46808 25.76 11.2261 30.371 13.0701C30.8841 13.2761 31.1341 13.8571 30.9291 14.3701C30.7721 14.7621 30.396 15.0001 30 15.0001ZM6.00005 15.0001C5.60305 15.0001 5.22805 14.7621 5.07105 14.3711C4.86605 13.8581 5.11505 13.2761 5.62805 13.0711C10.24 11.2271 12.1511 8.46908 12.1701 8.44208C12.4781 7.98608 13.099 7.86508 13.557 8.17208C14.014 8.48008 14.138 9.09708 13.832 9.55508C13.743 9.68808 11.6001 12.8381 6.37205 14.9291C6.25005 14.9771 6.12405 15.0001 6.00005 15.0001Z" fill="#75101E"/>
<path d="M24 16H28V35L24 34.954V16ZM8 35L12 34.954V16H8V35Z" fill="#8BA3A7"/>
<path d="M14.999 18.0001C14.849 18.0001 14.696 17.9661 14.553 17.8951C11.041 16.1391 7.48297 17.8771 7.44797 17.8951C6.95297 18.1441 6.35297 17.9411 6.10597 17.4481C5.85897 16.9541 6.05897 16.3531 6.55297 16.1061C6.73497 16.0161 11.051 13.9091 15.448 16.1061C15.942 16.3531 16.142 16.9541 15.895 17.4481C15.719 17.7981 15.366 18.0001 14.999 18.0001ZM28.999 18.0001C28.849 18.0001 28.696 17.9661 28.553 17.8951C25.04 16.1391 21.483 17.8771 21.448 17.8951C20.954 18.1431 20.354 17.9421 20.106 17.4481C19.859 16.9541 20.059 16.3531 20.553 16.1061C20.735 16.0161 25.054 13.9101 29.448 16.1061C29.942 16.3531 30.142 16.9541 29.895 17.4481C29.719 17.7981 29.366 18.0001 28.999 18.0001Z" fill="#75101E"/>
<path d="M18 36C27.9411 36 36 35.1046 36 34C36 32.8954 27.9411 32 18 32C8.05887 32 0 32.8954 0 34C0 35.1046 8.05887 36 18 36Z" fill="#8BA3A7"/>
<path d="M18 29C19.6569 29 21 28.1046 21 27C21 25.8954 19.6569 25 18 25C16.3431 25 15 25.8954 15 27C15 28.1046 16.3431 29 18 29Z" fill="#E75A6B"/>
</svg>
