<svg width="36" height="36" viewBox="0 0 36 36" fill="none" xmlns="http://www.w3.org/2000/svg">
<path d="M36 18C36 27.941 27.941 36 18 36C8.06 36 0 27.941 0 18C0 8.06 8.06 0 18 0C27.941 0 36 8.06 36 18Z" fill="#DDA0AD"/>
<path d="M11.5 18C12.8807 18 14 16.433 14 14.5C14 12.567 12.8807 11 11.5 11C10.1193 11 9 12.567 9 14.5C9 16.433 10.1193 18 11.5 18Z" fill="#75101E"/>
<path d="M24.5 18C25.8807 18 27 16.433 27 14.5C27 12.567 25.8807 11 24.5 11C23.1193 11 22 12.567 22 14.5C22 16.433 23.1193 18 24.5 18Z" fill="#75101E"/>
<path d="M8.66511 27.871C8.84311 28.032 9.10911 28.042 9.30011 27.9C9.33911 27.871 13.2221 25 18.0001 25C22.7661 25 26.6621 27.871 26.7001 27.9C26.8911 28.042 27.1571 28.03 27.3351 27.871C27.5121 27.711 27.5521 27.447 27.4291 27.243C27.3001 27.029 24.2121 22 18.0001 22C11.7881 22 8.69911 27.028 8.57111 27.243C8.44811 27.448 8.48711 27.711 8.66511 27.871Z" fill="#75101E"/>
</svg>
