<svg width="12" height="36" viewBox="0 0 12 36" fill="none" xmlns="http://www.w3.org/2000/svg">
<path d="M1.29119 21.7832C1.05519 21.9442 0.779187 21.7632 0.645187 21.6522C0.266187 21.3392 -0.117813 20.5082 0.0341867 19.5102C0.188187 18.5022 0.438186 17.3252 0.912186 15.3732C0.967186 15.1452 0.638186 12.5972 0.919186 10.8452C0.995186 10.3722 1.87719 9.77919 2.41419 9.78819C2.95019 9.79619 2.67719 10.7322 2.68819 10.8892C2.80819 12.5712 2.54519 15.1682 2.49519 15.5212C2.21819 17.4772 1.25619 18.3562 1.51419 19.6512C1.64919 20.3302 1.66819 20.9442 1.27219 20.9962C1.27619 21.3622 1.37719 21.7242 1.29119 21.7832ZM10.3932 21.7832C10.6292 21.9442 10.9052 21.7632 11.0392 21.6522C11.4182 21.3392 11.8022 20.5082 11.6502 19.5102C11.4962 18.5022 11.2462 17.3252 10.7722 15.3732C10.7172 15.1452 11.0462 12.5972 10.7652 10.8452C10.6892 10.3722 9.80719 9.77919 9.27019 9.78819C8.73419 9.79619 9.00718 10.7322 8.99619 10.8892C8.87619 12.5712 9.13919 15.1682 9.18919 15.5212C9.46619 17.4772 10.4282 18.3562 10.1702 19.6512C10.0352 20.3302 10.0162 20.9442 10.4122 20.9962C10.4082 21.3622 10.3072 21.7242 10.3932 21.7832Z" fill="#E4DADB"/>
<path d="M9.55923 24.3838C9.55923 23.3718 9.64323 20.7558 9.31823 19.1858C8.99323 17.6158 2.63123 17.5808 2.30623 19.1858C1.98123 20.7908 2.23123 23.2668 2.23123 24.3438C2.23123 26.4848 3.39023 32.0908 3.09323 34.2468C3.02723 34.7258 5.58523 35.1838 5.54223 34.1218C5.46423 32.1528 5.43823 28.9288 5.50223 27.9418C5.53723 27.3948 5.67323 23.1708 5.76723 21.8368C5.77823 21.8188 6.06223 21.8188 6.07323 21.8368C6.16723 23.1698 6.46023 27.3948 6.49623 27.9418C6.56023 28.9288 6.63323 32.1538 6.55523 34.1218C6.51323 35.1838 9.08023 34.7258 9.01423 34.2468C8.71823 32.0908 9.55923 24.7328 9.55923 24.3838Z" fill="#DDA0AD"/>
<path d="M7.58621 4.76682C8.40021 4.96482 8.73721 5.66183 8.70221 6.38283C8.67821 6.87083 9.08621 7.31282 9.08621 7.31282C9.08621 7.31282 7.01621 7.73182 6.60521 5.90383C6.23421 4.26283 7.58621 4.76682 7.58621 4.76682Z" fill="black"/>
<path d="M9.97315 8.585C9.30815 7.791 6.95415 7.229 6.95415 7.229H4.72915C4.72915 7.229 2.37415 7.79 1.71015 8.585C0.90315 9.549 0.728149 11.295 0.728149 11.295L2.33615 11.593C2.33615 11.593 2.79715 13.455 2.79715 14.893C2.79715 16.04 2.37515 18.221 2.20415 19.056C2.16115 19.267 2.16915 19.283 2.20415 19.335C2.23915 19.387 2.43715 19.392 2.43715 19.392H9.25115C9.25115 19.392 9.37915 19.414 9.44915 19.356C9.51915 19.298 9.50015 19.272 9.45115 19.07C9.24815 18.237 8.72915 15.997 8.72915 14.894C8.72915 13.523 9.37915 11.593 9.37915 11.593L10.9592 11.295C10.9552 11.294 10.7802 9.549 9.97315 8.585Z" fill="#75101E"/>
<path d="M7.20216 3.5752L4.51416 3.5942V7.5752C4.51416 8.5382 7.20216 8.5732 7.20216 7.5752V3.5752Z" fill="#E4DADB"/>
<path d="M7.20216 3.06494L4.51416 3.08394V6.98494C4.51416 6.98494 5.68416 8.13594 7.20216 7.01994V3.06494Z" fill="#EEC2AD"/>
<path d="M2.95215 2.651C2.95215 0.898 4.28715 0 5.93515 0C7.58215 0 8.91815 0.898 8.91815 2.651C8.91815 4.404 7.58315 5.825 5.93515 5.825C4.28715 5.825 2.95215 4.404 2.95215 2.651Z" fill="black"/>
<path d="M8.54423 1.49707H3.33423V4.23507C3.33423 5.57207 4.78123 7.22807 5.93923 7.22807C7.09723 7.22807 8.54423 5.71207 8.54423 4.31607V1.49707Z" fill="#E4DADB"/>
<path d="M6.04123 1.44678C6.04123 1.44678 5.07423 3.18578 3.33423 3.18578V1.44678H6.04123Z" fill="black"/>
<path d="M5.77917 1.44678C5.77917 1.44678 6.81217 3.18578 8.55117 3.18578V1.44678H5.77917Z" fill="black"/>
<path d="M4.89125 4.32986C5.07847 4.32986 5.23025 4.17808 5.23025 3.99086C5.23025 3.80363 5.07847 3.65186 4.89125 3.65186C4.70402 3.65186 4.55225 3.80363 4.55225 3.99086C4.55225 4.17808 4.70402 4.32986 4.89125 4.32986Z" fill="#662113"/>
<path d="M7.00721 4.32986C7.19444 4.32986 7.34621 4.17808 7.34621 3.99086C7.34621 3.80363 7.19444 3.65186 7.00721 3.65186C6.81999 3.65186 6.66821 3.80363 6.66821 3.99086C6.66821 4.17808 6.81999 4.32986 7.00721 4.32986Z" fill="#662113"/>
<path d="M5.95414 6.24404C5.55014 6.24404 5.33814 6.04404 5.31514 6.02104C5.24814 5.95404 5.24814 5.84504 5.31514 5.77804C5.38214 5.71104 5.48914 5.71104 5.55714 5.77604C5.56614 5.78404 5.69614 5.90004 5.95414 5.90004C6.21514 5.90004 6.34514 5.78104 6.35114 5.77604C6.42014 5.71204 6.52814 5.71404 6.59314 5.78104C6.65814 5.84904 6.65814 5.95504 6.59214 6.02104C6.57014 6.04404 6.35914 6.24404 5.95414 6.24404Z" fill="#DF1F32"/>
<path d="M6.1522 5.35205H5.75721C5.64821 5.35205 5.5592 5.26305 5.5592 5.15405C5.5592 5.04505 5.64821 4.95605 5.75721 4.95605H6.1522C6.2612 4.95605 6.3502 5.04505 6.3502 5.15405C6.3492 5.26305 6.2602 5.35205 6.1522 5.35205Z" fill="#C1694F"/>
<path d="M2.01514 35.1118C1.45714 35.0608 1.82314 34.4278 2.07714 34.2148C2.35914 33.9768 2.81114 33.7738 3.03814 33.3628C3.28914 32.9078 4.50314 32.9678 4.75914 33.3398C5.21614 34.0038 5.41914 33.5188 5.55114 33.8278C5.76314 34.3218 5.60114 35.1118 5.60114 35.1118H2.01514ZM10.0441 35.1118C10.6021 35.0608 10.2361 34.4278 9.98214 34.2148C9.70014 33.9768 9.24814 33.7738 9.02114 33.3628C8.77014 32.9078 7.55614 32.9678 7.30014 33.3398C6.84314 34.0038 6.64014 33.5188 6.50814 33.8278C6.29614 34.3218 6.45814 35.1118 6.45814 35.1118H10.0441Z" fill="black"/>
</svg>
