<svg width="24" height="35" viewBox="0 0 24 35" fill="none" xmlns="http://www.w3.org/2000/svg">
<path d="M17.0286 20.3423C17.5823 20.6478 19.1823 21.5633 20.1619 22.4464C20.7308 22.9591 20.6564 23.3324 20.4759 24.2326L20.4597 24.3138C20.2821 25.2035 18.4491 31.0338 18.0892 32.1728L16.9742 31.8949C16.9608 31.3021 16.9331 29.2209 17.146 27.8805C17.2166 27.4318 17.2882 26.8914 17.3532 26.4017C17.42 25.8938 17.4849 25.4136 17.5288 25.1864C17.6023 24.8083 17.4811 24.5658 17.1365 24.3987C16.3994 24.0417 15.7646 23.7582 15.4524 23.6216L17.0286 20.3423ZM6.8392 25.5052C7.34805 25.4432 7.82921 25.383 8.05929 25.3687C8.44403 25.3448 8.64929 25.1663 8.7228 24.7902C8.88319 23.9863 8.99775 23.3009 9.05217 22.9648L12.6227 23.6646C12.4661 24.2785 11.9821 26.0561 11.374 27.2275C11.0217 27.9063 10.6417 27.9282 9.72618 27.9807L9.64216 27.9855C8.73521 28.0399 2.63285 27.7316 1.43854 27.6705L1.42613 26.5201C1.99608 26.3587 4.00283 25.8079 5.35371 25.6752C5.80814 25.6332 6.34849 25.5663 6.8392 25.5052Z" fill="#DCB8BA"/>
<path d="M3.06401 28.1626L3.22248 27.8705C3.24253 27.8237 3.21962 27.7693 3.17093 27.7531C3.01818 27.7005 2.70982 27.5593 2.60194 27.5029C2.6955 27.7168 2.80242 28.0586 2.92176 28.1617C2.96758 28.2008 3.04014 28.218 3.06401 28.1626Z" fill="#8899A6"/>
<path d="M0.753863 25.896C0.877972 25.7967 1.16152 25.748 1.33909 25.7309C1.46224 25.7185 1.78206 25.7089 2.05128 25.7242C2.17253 25.7309 2.31096 25.7461 2.36728 25.7624C2.5439 25.8139 2.62123 25.8874 2.66324 25.939C2.71384 26.001 2.71861 26.0669 2.70715 26.1003C2.66037 26.2368 2.43602 26.4727 2.33864 26.697C2.30618 26.7715 2.28709 26.845 2.29377 26.9128C2.31764 27.1591 2.63173 27.5171 2.86659 27.7825C3.00788 27.9419 3.12053 28.0679 3.12531 28.1166C3.13008 28.1691 3.11576 28.214 3.09189 28.2579V28.2598C3.02793 28.3773 2.88759 28.4995 2.79212 28.8202C2.73006 29.0274 2.43984 29.9706 2.43984 29.9706C2.37015 30.2112 2.27754 30.2694 2.2384 30.3993C2.15725 30.6637 2.01405 31.374 1.9434 31.5984C1.87276 31.8227 1.70187 31.9191 1.57108 31.9373C1.43933 31.9554 1.36391 31.9249 1.36391 31.9249C1.36391 31.9249 1.0565 31.7864 0.853151 30.6341C0.706129 29.8017 0.835968 29.6728 0.946711 28.4221C1.05555 27.1696 0.753863 25.896 0.753863 25.896Z" fill="#DDA0AD"/>
<path d="M1.01088 27.7558C1.21996 27.6698 1.69826 27.3548 1.83192 27.0159C1.95316 26.7094 2.03526 25.8817 2.05054 25.7242C1.79373 25.7013 1.39944 25.7185 1.27247 25.7299C1.1054 25.7461 0.912551 25.7595 0.797034 25.8578L0.753119 25.896C0.754073 25.896 0.958377 27.2097 1.01088 27.7558Z" fill="#75101E"/>
<path d="M2.84749 28.7038C2.91909 28.7038 2.98688 28.6638 3.02029 28.5941C3.06611 28.4986 3.02506 28.385 2.92959 28.3401L2.62505 28.196C2.52576 28.1501 2.41502 28.1921 2.37015 28.2866C2.32528 28.3821 2.36537 28.4957 2.46084 28.5406L2.76539 28.6848C2.79212 28.6981 2.82076 28.7038 2.84749 28.7038ZM2.65273 29.2614C2.73388 29.2614 2.80835 29.2098 2.83413 29.1287C2.86659 29.0284 2.81121 28.9206 2.71002 28.8891L2.37206 28.7812C2.27659 28.7478 2.16489 28.8041 2.13243 28.9053C2.09997 29.0055 2.15534 29.1134 2.25654 29.1449L2.5945 29.2528C2.61359 29.2585 2.63269 29.2614 2.65273 29.2614ZM2.48853 29.8294C2.57827 29.8294 2.65751 29.7674 2.67565 29.6767C2.6957 29.5736 2.62982 29.4724 2.52672 29.4514L2.20976 29.3864C2.10093 29.3645 2.00546 29.4323 1.98446 29.5354C1.96441 29.6385 2.03028 29.7397 2.13339 29.7607L2.45034 29.8256C2.46371 29.8275 2.47612 29.8294 2.48853 29.8294ZM0.0158913 26.1319C0.0216193 26.1061 0.0397577 26.0097 0.106586 25.8913C0.128544 25.8512 0.180097 25.8388 0.23165 25.8331C0.295614 25.8245 0.766275 25.7567 0.774867 25.8522C0.774867 25.8522 0.776775 25.9935 0.843603 26.0909C0.910431 26.1882 0.956258 26.4269 0.973442 26.6054C0.990627 26.783 1.067 27.4523 1.04982 27.922C1.03263 28.3917 0.887519 29.2423 0.879881 29.5258C0.873199 29.8094 0.879883 30.2504 0.940028 30.5769C1.00017 30.9034 1.06509 31.1937 1.11473 31.3732C1.1787 31.6042 1.26462 31.7923 1.36295 31.925C1.36295 31.925 0.99158 31.9001 0.707083 31.3502C0.482732 30.9168 0.356713 30.4996 0.309933 30.0929C0.306115 30.0624 0.209692 28.9778 0.162912 28.4356C0.129498 28.0394 0.0722177 27.4064 0.0722177 27.4064C0.000616312 26.656 -0.0165682 26.2751 0.0158913 26.1319Z" fill="#CCD6DD"/>
<path d="M16.152 32.3551C16.0918 32.2081 16.1262 31.9226 16.1596 31.747C16.1835 31.6257 16.2646 31.3155 16.3553 31.0625C16.3964 30.9489 16.4498 30.82 16.4813 30.7703C16.5806 30.6157 16.6732 30.5632 16.7353 30.5374C16.8088 30.5059 16.8737 30.5202 16.9024 30.5412C17.0198 30.6252 17.183 30.9069 17.3692 31.0644C17.4313 31.1169 17.4962 31.1551 17.564 31.1684C17.8064 31.2152 18.2389 31.0166 18.5607 30.8658C18.7535 30.7761 18.9062 30.7035 18.954 30.7131C19.0055 30.7236 19.0447 30.7493 19.08 30.7847L19.0819 30.7856H19.081C19.1755 30.8801 19.2528 31.0501 19.5335 31.2324C19.7139 31.3498 20.5369 31.8969 20.5369 31.8969C20.7478 32.0315 20.7774 32.1374 20.8901 32.2119C21.1211 32.3647 21.7608 32.7036 21.9565 32.8353C22.1512 32.9671 22.1961 33.158 22.176 33.2888C22.156 33.4196 22.1054 33.4836 22.1054 33.4836C22.1054 33.4836 21.8858 33.7394 20.723 33.6067C19.8829 33.5112 19.797 33.3499 18.6284 32.8888C17.4599 32.4277 16.152 32.3551 16.152 32.3551Z" fill="#DDA0AD"/>
<path d="M18.0083 32.6373C17.9854 32.412 17.8193 31.8649 17.5319 31.6396C17.2732 31.4372 16.5018 31.1222 16.3557 31.063C16.2603 31.3026 16.1648 31.6854 16.1409 31.8105C16.1094 31.9757 16.0665 32.1637 16.1285 32.3031L16.1524 32.3566C16.1524 32.3556 17.4699 32.5323 18.0083 32.6373Z" fill="#75101E"/>
<path d="M19.0313 31.5331C19.0838 31.5331 19.1354 31.5121 19.1736 31.4692L19.3989 31.2181C19.4686 31.1398 19.4619 31.0186 19.3836 30.9489C19.3044 30.8792 19.186 30.8849 19.1134 30.9642L18.8891 31.2152C18.8194 31.2935 18.8261 31.4148 18.9044 31.4845C18.9416 31.5169 18.9855 31.5331 19.0313 31.5331ZM19.5364 31.9208C19.5965 31.9208 19.6576 31.8912 19.6939 31.8367L19.8934 31.5427C19.9526 31.4549 19.9306 31.3365 19.8428 31.2773C19.7579 31.2191 19.6366 31.2401 19.5784 31.3279L19.3788 31.6219C19.3196 31.7098 19.3416 31.8281 19.4294 31.8873C19.4609 31.9102 19.4982 31.9208 19.5364 31.9208ZM20.0805 32.231C20.1483 32.231 20.2151 32.1947 20.2495 32.1298L20.4013 31.8444C20.451 31.7508 20.4156 31.6353 20.3221 31.5857C20.2323 31.536 20.1139 31.5704 20.0633 31.6649L19.9116 31.9503C19.8619 32.0439 19.8972 32.1594 19.9908 32.2091C20.0185 32.2243 20.05 32.231 20.0805 32.231ZM16.1682 33.1294C16.1453 33.117 16.0575 33.0721 15.963 32.9747C15.9315 32.9423 15.9334 32.8898 15.942 32.8382C15.9525 32.7742 16.0212 32.3045 16.1148 32.3227C16.1148 32.3227 16.2513 32.3609 16.363 32.3246C16.4747 32.2883 16.7172 32.3122 16.8928 32.3456C17.0685 32.38 17.7311 32.4964 18.1769 32.6463C18.6227 32.7962 19.396 33.1771 19.6662 33.265C19.9364 33.3518 20.3612 33.4702 20.6915 33.5055C21.0219 33.5409 21.3188 33.5609 21.504 33.5647C21.7436 33.5685 21.9489 33.5409 22.1035 33.4836C22.1035 33.4836 21.9737 33.833 21.3665 33.9495C20.8872 34.0421 20.451 34.044 20.0481 33.9733C20.0175 33.9676 18.9502 33.7528 18.4175 33.643C18.028 33.5628 17.4055 33.4377 17.4055 33.4377C16.6666 33.2936 16.2962 33.2019 16.1682 33.1294Z" fill="#CCD6DD"/>
<path d="M17.4096 20.235C16.705 19.8703 14.3775 18.7189 12.787 18.5547C12.6418 18.5395 11.3301 22.2818 11.5067 22.3382C12.2352 22.573 14.0662 23.1945 15.4534 23.9306C15.6004 24.0089 15.7761 23.9726 15.8668 23.8447C16.2782 23.2671 17.3456 21.6899 17.5833 20.5644C17.611 20.4326 17.5375 20.3009 17.4096 20.235Z" fill="#DDA0AD"/>
<path d="M12.8286 23.9557C13.0158 23.1967 13.5867 20.6993 13.3881 19.1355C13.3699 18.9923 9.86529 18.4815 9.86529 18.4815C9.69822 18.4615 9.29248 21.4258 8.90583 22.9256C8.86478 23.0841 8.93733 23.2445 9.07863 23.3027C9.7154 23.5653 11.4405 24.2278 12.5565 24.1973C12.6864 24.1934 12.7943 24.0922 12.8286 23.9557Z" fill="#DDA0AD"/>
<path d="M15.7701 10.4769C15.8789 11.0879 15.5228 11.8431 14.1108 12.1391C12.6989 12.435 11.6726 12.3997 10.9375 12.3472C10.314 12.3023 10.4 13.256 10.2587 14.2546C10.1174 15.2571 10.0286 16.564 10.0849 16.7683C10.1804 17.113 10.7742 17.2256 10.504 17.8404C10.2338 18.4543 10.1899 18.7904 9.60471 18.5946C9.01949 18.3989 8.43808 18.187 8.27197 17.87C8.10585 17.5531 8.68248 16.8533 8.69108 16.4733C8.69776 16.1926 8.41135 12.6813 8.42854 12.2679C8.44954 11.7639 8.46195 11.0736 9.27248 10.7576C10.083 10.4416 13.1943 9.63682 14.0192 9.47643C14.8899 9.30745 15.6259 9.66641 15.7701 10.4769Z" fill="#DCB8BA"/>
<path d="M14.1529 6.05355C13.857 5.67072 13.6317 5.22106 13.5219 4.66448C13.1314 2.67586 14.2799 0.776038 16.0881 0.421849C17.8953 0.0667055 20.3679 1.40422 20.3126 3.43007C20.2581 5.44159 19.1393 8.4078 17.4552 7.90755C17.0103 7.7758 16.5654 7.63069 16.1425 7.45503C15.9621 7.66888 15.8322 8.48704 15.9067 9.18778C16.0976 10.973 13.6336 11.1592 13.4445 9.37108C13.2947 7.95624 14.1777 7.05692 14.1529 6.05355Z" fill="#DCB8BA"/>
<path d="M8.99017 2.35036C10.2418 2.337 11.3731 1.05199 12.6609 1.87206C12.913 2.03245 13.0963 2.19379 13.2376 2.35227C13.461 1.67349 13.8447 1.04722 14.4777 0.635746C15.0963 0.232868 15.8553 -0.0678586 16.5723 0.0132898C20.9419 0.505908 20.7051 3.66592 20.3729 3.96187C20.0407 4.25783 19.1328 3.41579 18.4616 3.32319C18.1485 3.27927 17.4678 3.27259 17.1069 3.79099C16.8148 4.21105 16.7145 5.06072 16.7145 5.06072C16.7145 5.06072 16.7031 4.09458 16.6754 3.75471C16.6496 3.43775 16.3355 3.07306 15.9107 3.54277C15.5412 3.95137 15.7293 4.75331 15.9861 4.83732C16.1837 4.90224 15.863 5.38627 15.3675 5.75478C14.4643 6.42687 13.7626 6.16338 13.6624 6.12615C13.5612 6.08892 13.2185 6.0135 13.0438 4.85355C13.0189 4.69221 13.0018 4.51941 12.9913 4.34088C12.6342 4.6502 12.049 5.01776 11.247 5.02349C10.3601 5.03017 8.74672 4.5786 7.82354 3.47594C7.11325 2.62722 6.82112 1.22765 6.82112 1.22765C7.19822 1.93221 8.04598 2.36086 8.99017 2.35036Z" fill="#292F33"/>
<path d="M11.1658 10.1846C11.8608 8.55877 12.868 7.70528 14.2485 8.16639C15.4753 8.57691 16.0834 9.26524 16.4452 10.0376C16.6209 10.4128 17.3054 11.883 16.8901 12.8377C16.0777 14.705 14.7488 18.435 14.5149 19.5768C14.5149 19.5768 14.2074 19.888 12.2207 19.6379C10.4803 19.4183 9.61254 19.2522 9.61254 19.2522C9.87699 16.7758 10.0441 12.8109 11.1658 10.1846Z" fill="#75101E"/>
<path d="M13.4779 10.3066C14.0288 9.95145 14.909 9.99059 15.773 11.245C16.637 12.4995 17.0217 13.5134 17.2699 14.2504C17.4809 14.8757 18.3745 14.4031 19.4046 14.1339C20.4385 13.8628 21.7484 13.416 21.924 13.2776C22.2209 13.0437 22.0882 12.4203 22.7966 12.4317C23.505 12.4441 23.8496 12.3496 23.8974 12.9998C23.9451 13.6499 23.9766 14.302 23.7351 14.5931C23.4935 14.8843 22.578 14.6084 22.2037 14.7545C21.9278 14.8624 18.6246 16.5732 18.2151 16.7249C17.7148 16.9102 17.0379 17.1794 16.4002 16.5187C15.7625 15.8581 13.7089 13.1563 13.2163 12.4174C12.6979 11.6403 12.7476 10.7772 13.4779 10.3066Z" fill="#DCB8BA"/>
</svg>
