<svg width="36" height="36" viewBox="0 0 36 36" fill="none" xmlns="http://www.w3.org/2000/svg">
<path d="M18 36C27.9411 36 36 27.9411 36 18C36 8.05887 27.9411 0 18 0C8.05887 0 0 8.05887 0 18C0 27.9411 8.05887 36 18 36Z" fill="#DDA0AD"/>
<path d="M12.5 20C13.8807 20 15 18.433 15 16.5C15 14.567 13.8807 13 12.5 13C11.1193 13 10 14.567 10 16.5C10 18.433 11.1193 20 12.5 20Z" fill="#75101E"/>
<path d="M23.5 20C24.8807 20 26 18.433 26 16.5C26 14.567 24.8807 13 23.5 13C22.1193 13 21 14.567 21 16.5C21 18.433 22.1193 20 23.5 20Z" fill="#75101E"/>
<path d="M29 12.0001C23.446 12.0001 21.198 7.63315 21.105 7.44715C20.858 6.95315 21.058 6.35215 21.552 6.10515C22.044 5.85815 22.644 6.05715 22.892 6.54815C22.967 6.69415 24.713 10.0001 29 10.0001C29.553 10.0001 30 10.4481 30 11.0001C30 11.5531 29.553 12.0001 29 12.0001ZM7 11.9941C6.448 11.9941 6 11.5461 6 10.9941C6 10.4421 6.448 9.99415 7 9.99415C12.083 9.99415 12.996 6.87415 13.033 6.74115C13.178 6.21315 13.723 5.89315 14.252 6.03215C14.782 6.17115 15.103 6.70515 14.97 7.23715C14.921 7.43115 13.704 11.9941 7 11.9941Z" fill="#75101E"/>
<path d="M35.968 17.0679L31.963 17.8809L15.776 28.3889L22.894 29.3519L34.579 22.1409C35.282 21.7099 35.573 21.3059 35.777 20.3939C35.981 19.4819 35.968 17.0679 35.968 17.0679Z" fill="#C46471"/>
<path d="M23.485 29.379C23.474 29.335 22.34 26.5 18 26.5C13.66 26.5 12.526 29.335 12.515 29.379C12.462 29.592 12.559 29.81 12.747 29.923C12.935 30.035 13.18 30.009 13.343 29.863C13.352 29.855 14.356 29 18 29C21.59 29 22.617 29.83 22.656 29.863C22.751 29.953 22.875 30 23 30C23.084 30 23.169 29.979 23.246 29.936C23.442 29.824 23.54 29.597 23.485 29.379Z" fill="#75101E"/>
<path d="M35.474 15.7288C34.645 14.6248 33.077 14.4008 31.973 15.2288L14.767 28.1368C15.413 27.8948 16.277 27.6928 17.382 27.6148C17.638 27.5968 20.042 26.9878 20.042 26.9878L21.335 28.0238C21.335 28.0238 22.246 28.3908 22.532 28.5628L34.976 19.2278C36.079 18.4008 36.302 16.8328 35.474 15.7288Z" fill="#DBE8EA"/>
<path d="M28.686 20.8702C28.238 20.2742 27.899 19.7252 27.303 20.1722L17.381 27.6152C17.637 27.5972 17.881 27.5732 18.164 27.5712C19.524 27.5622 20.564 27.7662 21.334 28.0232L28.922 22.3312C29.518 21.8842 29.133 21.4672 28.686 20.8702Z" fill="#C46471"/>
<path d="M18.599 25.2278L19.833 26.8258L20.574 26.2308L19.377 24.6438L18.599 25.2278ZM20.822 23.5668L22.057 25.1648L22.798 24.5698L21.601 22.9828L20.822 23.5668ZM23.006 21.9478L24.24 23.5458L24.981 22.9508L23.784 21.3638L23.006 21.9478ZM25.187 20.2878L26.422 21.8848L27.163 21.2908L25.966 19.7038L25.187 20.2878ZM27.425 18.6468L28.66 20.2448L29.4 19.6498L28.204 18.0628L27.425 18.6468ZM29.565 17.0288L30.8 18.6268L31.54 18.0318L30.344 16.4448L29.565 17.0288Z" fill="#67757F"/>
<path d="M22.531 28.5629L23.336 29.0849C23.336 29.0849 23.139 28.7229 22.81 28.3589L22.531 28.5629Z" fill="#452E04"/>
</svg>
