<svg width="412" height="410" viewBox="0 0 412 410" fill="none" xmlns="http://www.w3.org/2000/svg">
<g opacity="0.2">
<path d="M206 0L221.394 104.227L266.89 9.15877L250.816 113.283L322.37 35.8212L276.255 130.592L367.509 77.6181L295.452 154.614L398.298 130.836L306.7 183.215L412 190.745L309 213.854L407.399 252.024L302.149 243.81L384.902 309.227L286.756 270.419L346.509 357.271L264.185 291.316L295.631 391.888L236.445 304.647L236.79 410L206 309.227L175.211 410L175.555 304.647L116.37 391.888L147.816 291.316L65.4917 357.271L125.246 270.419L27.0986 309.227L109.851 243.81L4.60164 252.024L103 213.854L0 190.745L105.301 183.215L13.7022 130.836L116.549 154.614L44.4912 77.6181L135.745 130.592L89.6308 35.8212L161.185 113.283L145.11 9.15877L190.606 104.227L206 0Z" fill="white"/>
<path d="M206 0L221.394 104.227L266.89 9.15877L250.816 113.283L322.37 35.8212L276.255 130.592L367.509 77.6181L295.452 154.614L398.298 130.836L306.7 183.215L412 190.745L309 213.854L407.399 252.024L302.149 243.81L384.902 309.227L286.756 270.419L346.509 357.271L264.185 291.316L295.631 391.888L236.445 304.647L236.79 410L206 309.227L175.211 410L175.555 304.647L116.37 391.888L147.816 291.316L65.4917 357.271L125.246 270.419L27.0986 309.227L109.851 243.81L4.60164 252.024L103 213.854L0 190.745L105.301 183.215L13.7022 130.836L116.549 154.614L44.4912 77.6181L135.745 130.592L89.6308 35.8212L161.185 113.283L145.11 9.15877L190.606 104.227L206 0Z" fill="white"/>
<path d="M206 0L221.394 104.227L266.89 9.15877L250.816 113.283L322.37 35.8212L276.255 130.592L367.509 77.6181L295.452 154.614L398.298 130.836L306.7 183.215L412 190.745L309 213.854L407.399 252.024L302.149 243.81L384.902 309.227L286.756 270.419L346.509 357.271L264.185 291.316L295.631 391.888L236.445 304.647L236.79 410L206 309.227L175.211 410L175.555 304.647L116.37 391.888L147.816 291.316L65.4917 357.271L125.246 270.419L27.0986 309.227L109.851 243.81L4.60164 252.024L103 213.854L0 190.745L105.301 183.215L13.7022 130.836L116.549 154.614L44.4912 77.6181L135.745 130.592L89.6308 35.8212L161.185 113.283L145.11 9.15877L190.606 104.227L206 0Z" fill="white"/>
</g>
</svg>
