<svg width="198" height="198" viewBox="0 0 198 198" fill="none" xmlns="http://www.w3.org/2000/svg">
<path d="M99 0L109.841 30.5532L129.593 4.84541L130.462 37.2533L157.191 18.9073L148.003 49.9975L179.093 40.8093L160.747 67.5385L193.155 68.4073L167.447 88.1591L198 99L167.447 109.841L193.155 129.593L160.747 130.462L179.093 157.191L148.003 148.003L157.191 179.093L130.462 160.747L129.593 193.155L109.841 167.447L99 198L88.1591 167.447L68.4073 193.155L67.5385 160.747L40.8093 179.093L49.9975 148.003L18.9073 157.191L37.2533 130.462L4.84541 129.593L30.5532 109.841L0 99L30.5532 88.1591L4.84541 68.4073L37.2533 67.5385L18.9073 40.8093L49.9975 49.9975L40.8093 18.9073L67.5385 37.2533L68.4073 4.84541L88.1591 30.5532L99 0Z" fill="#C46471"/>
<path d="M55.9115 82.3435C57.4774 82.3435 58.8826 82.7851 60.1272 83.6684C61.4119 84.5115 62.4157 85.6156 63.1383 86.9806C60.4082 88.0647 57.6781 89.1487 54.948 90.2327C52.258 91.2766 49.548 92.3405 46.8179 93.4245C46.5368 92.0595 46.5569 90.7346 46.8781 89.4498C47.1993 88.1249 47.7613 86.9405 48.5643 85.8966C49.4074 84.8126 50.4513 83.9494 51.6959 83.307C52.9807 82.6646 54.3859 82.3435 55.9115 82.3435ZM63.8008 100.29L62.2952 98.4833C61.4521 99.2862 60.4885 99.9085 59.4045 100.35C58.3205 100.792 57.1562 101.013 55.9115 101.013C54.0246 101.013 52.3383 100.531 50.8528 99.5673C49.3673 98.6037 48.2632 97.339 47.5405 95.7732C50.6721 94.4885 53.7837 93.2438 56.8751 92.0394C60.0067 90.8349 63.1383 89.6104 66.2699 88.3658C65.8684 87.1613 65.3465 86.0572 64.7041 85.0535C64.0618 84.0096 63.319 83.1264 62.4759 82.4037C61.5926 81.6007 60.5889 80.9985 59.4647 80.597C58.3406 80.1553 57.1562 79.9345 55.9115 79.9345C54.2655 79.9345 52.7197 80.2557 51.2744 80.8981C49.8692 81.5003 48.6245 82.3234 47.5405 83.3673C46.4565 84.4111 45.6134 85.6557 45.0112 87.1011C44.4089 88.5464 44.1078 90.0721 44.1078 91.678C44.1078 93.3241 44.4089 94.8498 45.0112 96.255C45.6134 97.6602 46.4565 98.9048 47.5405 99.9888C48.6245 101.073 49.8692 101.916 51.2744 102.518C52.7197 103.12 54.2655 103.422 55.9115 103.422C57.4774 103.422 58.9227 103.141 60.2476 102.578C61.5725 102.016 62.7569 101.254 63.8008 100.29ZM82.8558 92.7621V90.3531H71.7747V92.7621H82.8558ZM115.545 82.765H119.941V80.4163H109.402V82.765H112.956C111.47 85.6959 109.985 88.6067 108.499 91.4974C107.014 94.3881 105.669 97.1784 104.464 99.8684C103.139 97.0178 101.754 94.1673 100.309 91.3167C98.8634 88.4661 97.3979 85.6156 95.9124 82.765H99.8872V80.4163H88.7459V82.765H93.3831C95.2299 86.4186 97.0767 90.0319 98.9236 93.6052C100.77 97.1784 102.617 100.772 104.464 104.385C106.311 100.772 108.158 97.1784 110.005 93.6052C111.851 90.0319 113.698 86.4186 115.545 82.765ZM152.335 103V100.651H147.878V80.4163H145.891C145.811 81.2996 145.751 82.2029 145.71 83.1264C145.67 84.0096 145.65 84.8728 145.65 85.716C144.968 84.1502 143.783 82.8052 142.097 81.681C140.411 80.5167 138.383 79.9345 136.014 79.9345C134.328 79.9345 132.762 80.2557 131.317 80.8981C129.912 81.5003 128.667 82.3234 127.583 83.3673C126.499 84.4513 125.656 85.716 125.054 87.1613C124.452 88.6067 124.151 90.1122 124.151 91.678C124.151 93.3241 124.452 94.8498 125.054 96.255C125.656 97.6602 126.499 98.9048 127.583 99.9888C128.667 101.073 129.912 101.916 131.317 102.518C132.762 103.12 134.328 103.422 136.014 103.422C137.219 103.422 138.343 103.261 139.387 102.94C140.471 102.619 141.435 102.177 142.278 101.615C143.081 101.093 143.763 100.511 144.325 99.8684C144.927 99.1859 145.369 98.4833 145.65 97.7606C145.65 98.2825 145.65 98.7643 145.65 99.2059C145.65 99.6074 145.65 100.049 145.65 100.531V103H152.335ZM136.014 82.3435C137.299 82.3435 138.504 82.5843 139.628 83.0661C140.752 83.5078 141.756 84.1502 142.639 84.9933C143.482 85.8364 144.145 86.8401 144.626 88.0044C145.148 89.1286 145.409 90.3531 145.409 91.678C145.409 93.003 145.148 94.2476 144.626 95.4119C144.145 96.536 143.462 97.5197 142.579 98.3628C141.736 99.2059 140.752 99.8684 139.628 100.35C138.504 100.792 137.299 101.013 136.014 101.013C134.73 101.013 133.545 100.792 132.461 100.35C131.377 99.9085 130.414 99.2862 129.571 98.4833C128.647 97.6401 127.924 96.6364 127.403 95.4721C126.881 94.3078 126.62 93.0431 126.62 91.678C126.62 90.3933 126.84 89.1888 127.282 88.0647C127.764 86.9405 128.426 85.9568 129.269 85.1137C130.072 84.2304 131.056 83.5479 132.22 83.0661C133.385 82.5843 134.649 82.3435 136.014 82.3435Z" fill="white"/>
<path d="M51.4679 115.848L53.2216 119.859L52.9629 119.887L54.6016 115.848H55.9098L53.1785 122.159L51.2666 118.076L49.5273 122.159L46.7673 115.848H48.0754L49.9298 120.045L49.4698 119.959L50.7923 116.883L50.3179 115.848H51.4679ZM56.6869 118.766C56.6869 118.172 56.8259 117.635 57.1038 117.156C57.3913 116.677 57.7842 116.298 58.2825 116.02C58.7809 115.742 59.3463 115.604 59.9788 115.604C60.6305 115.604 61.2007 115.742 61.6894 116.02C62.1782 116.298 62.5567 116.677 62.825 117.156C63.0934 117.635 63.2275 118.172 63.2275 118.766C63.2275 119.36 63.0934 119.902 62.825 120.39C62.5567 120.87 62.1734 121.248 61.675 121.526C61.1863 121.804 60.6161 121.943 59.9644 121.943C59.3319 121.943 58.7665 121.814 58.2682 121.555C57.7794 121.286 57.3913 120.917 57.1038 120.448C56.8259 119.969 56.6869 119.408 56.6869 118.766ZM58.0238 118.78C58.0238 119.164 58.11 119.514 58.2825 119.83C58.455 120.136 58.685 120.381 58.9725 120.563C59.2696 120.745 59.5955 120.836 59.95 120.836C60.3238 120.836 60.6544 120.745 60.9419 120.563C61.239 120.381 61.469 120.136 61.6319 119.83C61.7948 119.514 61.8763 119.164 61.8763 118.78C61.8763 118.397 61.7948 118.052 61.6319 117.745C61.469 117.429 61.239 117.18 60.9419 116.998C60.6544 116.806 60.3238 116.71 59.95 116.71C59.5859 116.71 59.2552 116.806 58.9582 116.998C58.6707 117.19 58.4407 117.444 58.2682 117.76C58.1052 118.066 58.0238 118.407 58.0238 118.78ZM66.2308 115.848L66.3458 117.185L66.2883 117.07C66.5087 116.619 66.8202 116.265 67.2227 116.006C67.6347 115.747 68.1043 115.618 68.6314 115.618C68.9668 115.618 69.2639 115.671 69.5227 115.776C69.7814 115.881 69.9922 116.035 70.1552 116.236C70.3277 116.428 70.4379 116.667 70.4858 116.955L70.4139 116.998C70.6439 116.567 70.9602 116.231 71.3627 115.992C71.7747 115.742 72.206 115.618 72.6564 115.618C73.241 115.618 73.701 115.786 74.0364 116.121C74.3814 116.447 74.5587 116.873 74.5683 117.4V121.799H73.2314V117.875C73.2218 117.568 73.1452 117.314 73.0014 117.113C72.8673 116.902 72.6277 116.787 72.2827 116.768C71.9377 116.768 71.6262 116.873 71.3483 117.084C71.08 117.295 70.8691 117.568 70.7158 117.904C70.5625 118.229 70.481 118.584 70.4714 118.967V121.799H69.1345V117.875C69.125 117.568 69.0435 117.314 68.8902 117.113C68.7464 116.902 68.502 116.787 68.157 116.768C67.8025 116.768 67.491 116.873 67.2227 117.084C66.9543 117.295 66.7435 117.568 66.5902 117.904C66.4464 118.239 66.3745 118.598 66.3745 118.982V121.799H65.0377V115.848H66.2308ZM79.3723 121.943C78.8165 121.943 78.3086 121.823 77.8486 121.584C77.3982 121.344 77.0388 120.994 76.7705 120.534C76.5117 120.065 76.3823 119.494 76.3823 118.824C76.3823 118.162 76.5213 117.592 76.7992 117.113C77.0771 116.624 77.4461 116.25 77.9061 115.992C78.3757 115.733 78.8884 115.604 79.4442 115.604C80.0001 115.604 80.4696 115.733 80.853 115.992C81.2363 116.241 81.5286 116.538 81.7298 116.883L81.6436 117.113L81.773 115.848H83.0092V121.799H81.6723V120.247L81.8161 120.592C81.7778 120.687 81.6915 120.812 81.5573 120.965C81.4328 121.109 81.2603 121.258 81.0398 121.411C80.829 121.564 80.5846 121.694 80.3067 121.799C80.0288 121.895 79.7173 121.943 79.3723 121.943ZM79.7317 120.836C80.0671 120.836 80.369 120.774 80.6373 120.649C80.9057 120.525 81.1261 120.352 81.2986 120.132C81.4807 119.902 81.6053 119.629 81.6723 119.312V118.148C81.5957 117.86 81.4615 117.611 81.2698 117.4C81.0782 117.18 80.8482 117.012 80.5798 116.897C80.3115 116.773 80.0144 116.71 79.6886 116.71C79.334 116.71 79.0082 116.797 78.7111 116.969C78.414 117.142 78.1744 117.381 77.9923 117.688C77.8198 117.995 77.7336 118.354 77.7336 118.766C77.7336 119.149 77.8246 119.499 78.0067 119.815C78.1888 120.132 78.4332 120.381 78.7398 120.563C79.0465 120.745 79.3771 120.836 79.7317 120.836ZM86.5158 115.848L86.6308 117.3L86.5733 117.07C86.765 116.629 87.0765 116.279 87.5077 116.02C87.939 115.752 88.4373 115.618 89.0027 115.618C89.5681 115.618 90.0281 115.786 90.3827 116.121C90.7469 116.447 90.9337 116.873 90.9433 117.4V121.799H89.5921V117.875C89.5825 117.549 89.4867 117.285 89.3046 117.084C89.1321 116.873 88.859 116.768 88.4852 116.768C88.1402 116.768 87.8287 116.864 87.5508 117.055C87.2729 117.247 87.0525 117.511 86.8896 117.846C86.7362 118.181 86.6596 118.57 86.6596 119.01V121.799H85.3227V115.848H86.5158ZM101.626 115.848L103.38 119.859L103.121 119.887L104.76 115.848H106.068L103.337 122.159L101.425 118.076L99.6853 122.159L96.9253 115.848H98.2335L100.088 120.045L99.6278 119.959L100.95 116.883L100.476 115.848H101.626ZM110.122 121.943C109.442 121.943 108.857 121.809 108.369 121.54C107.88 121.262 107.501 120.889 107.233 120.419C106.974 119.94 106.845 119.394 106.845 118.78C106.845 118.196 106.994 117.664 107.291 117.185C107.588 116.706 107.985 116.322 108.484 116.035C108.982 115.747 109.538 115.604 110.151 115.604C110.937 115.604 111.589 115.834 112.106 116.294C112.624 116.754 112.974 117.386 113.156 118.191L108.254 119.916L107.937 119.125L111.962 117.659L111.675 117.846C111.56 117.53 111.368 117.257 111.1 117.027C110.832 116.787 110.482 116.667 110.051 116.667C109.686 116.667 109.361 116.758 109.073 116.94C108.786 117.113 108.56 117.352 108.397 117.659C108.235 117.966 108.153 118.316 108.153 118.709C108.153 119.121 108.239 119.485 108.412 119.801C108.584 120.108 108.819 120.352 109.116 120.534C109.423 120.707 109.768 120.793 110.151 120.793C110.41 120.793 110.659 120.745 110.899 120.649C111.148 120.553 111.378 120.429 111.589 120.275L112.207 121.267C111.91 121.469 111.574 121.631 111.201 121.756C110.836 121.881 110.477 121.943 110.122 121.943ZM114.831 110.673H116.168V121.799H114.831V110.673ZM118.481 110.673H119.818V121.799H118.481V110.673ZM123.324 115.848L123.439 117.3L123.381 117.07C123.573 116.629 123.884 116.279 124.316 116.02C124.747 115.752 125.245 115.618 125.811 115.618C126.376 115.618 126.836 115.786 127.191 116.121C127.555 116.447 127.742 116.873 127.751 117.4V121.799H126.4V117.875C126.39 117.549 126.295 117.285 126.112 117.084C125.94 116.873 125.667 116.768 125.293 116.768C124.948 116.768 124.637 116.864 124.359 117.055C124.081 117.247 123.86 117.511 123.697 117.846C123.544 118.181 123.467 118.57 123.467 119.01V121.799H122.131V115.848H123.324ZM132.836 121.943C132.156 121.943 131.571 121.809 131.082 121.54C130.594 121.262 130.215 120.889 129.947 120.419C129.688 119.94 129.559 119.394 129.559 118.78C129.559 118.196 129.707 117.664 130.004 117.185C130.301 116.706 130.699 116.322 131.197 116.035C131.696 115.747 132.252 115.604 132.865 115.604C133.651 115.604 134.302 115.834 134.82 116.294C135.337 116.754 135.687 117.386 135.869 118.191L130.967 119.916L130.651 119.125L134.676 117.659L134.389 117.846C134.274 117.53 134.082 117.257 133.814 117.027C133.545 116.787 133.195 116.667 132.764 116.667C132.4 116.667 132.074 116.758 131.787 116.94C131.499 117.113 131.274 117.352 131.111 117.659C130.948 117.966 130.867 118.316 130.867 118.709C130.867 119.121 130.953 119.485 131.125 119.801C131.298 120.108 131.533 120.352 131.83 120.534C132.137 120.707 132.482 120.793 132.865 120.793C133.124 120.793 133.373 120.745 133.612 120.649C133.862 120.553 134.092 120.429 134.302 120.275L134.92 121.267C134.623 121.469 134.288 121.631 133.914 121.756C133.55 121.881 133.191 121.943 132.836 121.943ZM139.212 121.914C138.79 121.914 138.378 121.842 137.976 121.699C137.583 121.545 137.257 121.32 136.998 121.023L137.559 120.247C137.808 120.486 138.062 120.668 138.321 120.793C138.589 120.908 138.853 120.965 139.111 120.965C139.303 120.965 139.48 120.941 139.643 120.894C139.806 120.846 139.935 120.769 140.031 120.664C140.137 120.549 140.189 120.395 140.189 120.204C140.189 119.993 140.118 119.825 139.974 119.7C139.84 119.576 139.662 119.475 139.442 119.399C139.231 119.322 139.006 119.25 138.766 119.183C138.278 119.02 137.904 118.795 137.645 118.507C137.386 118.22 137.257 117.87 137.257 117.458C137.257 117.142 137.334 116.849 137.487 116.581C137.65 116.303 137.885 116.078 138.191 115.905C138.508 115.733 138.896 115.647 139.356 115.647C139.768 115.647 140.137 115.699 140.463 115.805C140.788 115.901 141.095 116.064 141.383 116.294L140.851 117.127C140.678 116.945 140.472 116.811 140.233 116.725C139.993 116.639 139.777 116.591 139.586 116.581C139.423 116.571 139.265 116.595 139.111 116.653C138.968 116.71 138.848 116.792 138.752 116.897C138.656 117.003 138.608 117.127 138.608 117.271C138.608 117.472 138.675 117.635 138.809 117.76C138.944 117.884 139.116 117.985 139.327 118.062C139.547 118.129 139.763 118.201 139.974 118.277C140.271 118.364 140.534 118.479 140.764 118.622C140.994 118.766 141.176 118.943 141.311 119.154C141.454 119.365 141.526 119.629 141.526 119.945C141.526 120.299 141.44 120.63 141.268 120.937C141.105 121.234 140.851 121.473 140.506 121.655C140.17 121.828 139.739 121.914 139.212 121.914ZM145.066 121.914C144.644 121.914 144.232 121.842 143.83 121.699C143.437 121.545 143.111 121.32 142.852 121.023L143.413 120.247C143.662 120.486 143.916 120.668 144.175 120.793C144.443 120.908 144.706 120.965 144.965 120.965C145.157 120.965 145.334 120.941 145.497 120.894C145.66 120.846 145.789 120.769 145.885 120.664C145.991 120.549 146.043 120.395 146.043 120.204C146.043 119.993 145.971 119.825 145.828 119.7C145.693 119.576 145.516 119.475 145.296 119.399C145.085 119.322 144.86 119.25 144.62 119.183C144.131 119.02 143.758 118.795 143.499 118.507C143.24 118.22 143.111 117.87 143.111 117.458C143.111 117.142 143.187 116.849 143.341 116.581C143.504 116.303 143.738 116.078 144.045 115.905C144.361 115.733 144.75 115.647 145.21 115.647C145.622 115.647 145.991 115.699 146.316 115.805C146.642 115.901 146.949 116.064 147.236 116.294L146.705 117.127C146.532 116.945 146.326 116.811 146.086 116.725C145.847 116.639 145.631 116.591 145.44 116.581C145.277 116.571 145.118 116.595 144.965 116.653C144.821 116.71 144.702 116.792 144.606 116.897C144.51 117.003 144.462 117.127 144.462 117.271C144.462 117.472 144.529 117.635 144.663 117.76C144.797 117.884 144.97 117.985 145.181 118.062C145.401 118.129 145.617 118.201 145.828 118.277C146.125 118.364 146.388 118.479 146.618 118.622C146.848 118.766 147.03 118.943 147.165 119.154C147.308 119.365 147.38 119.629 147.38 119.945C147.38 120.299 147.294 120.63 147.121 120.937C146.958 121.234 146.705 121.473 146.36 121.655C146.024 121.828 145.593 121.914 145.066 121.914Z" fill="white"/>
<path d="M43.4639 109.717C48.9235 109.717 48.9235 105.953 54.3832 105.953C59.8428 105.953 59.8428 109.717 65.3024 109.717C70.7621 109.717 70.7621 105.953 76.2089 105.953C81.6687 105.953 81.6687 109.717 87.1154 109.717C92.5752 109.717 92.5752 105.953 98.0219 105.953C103.482 105.953 103.482 109.717 108.941 109.717C114.401 109.717 114.401 105.953 119.861 105.953C125.32 105.953 125.32 109.717 130.78 109.717C136.239 109.717 136.239 105.953 141.699 105.953C147.159 105.953 147.159 109.717 152.618 109.717" stroke="white" stroke-width="1.13836" stroke-miterlimit="10" stroke-linecap="round"/>
</svg>
